<?xml version="1.0" encoding="UTF-8" standalone="no"?>
<!-- Created with Inkscape (http://www.inkscape.org/) -->

<svg
   xmlns:dc="http://purl.org/dc/elements/1.1/"
   xmlns:cc="http://creativecommons.org/ns#"
   xmlns:rdf="http://www.w3.org/1999/02/22-rdf-syntax-ns#"
   xmlns:svg="http://www.w3.org/2000/svg"
   xmlns="http://www.w3.org/2000/svg"
   xmlns:sodipodi="http://sodipodi.sourceforge.net/DTD/sodipodi-0.dtd"
   xmlns:inkscape="http://www.inkscape.org/namespaces/inkscape"
   width="744.09448819"
   height="1052.3622047"
   id="svg3876"
   version="1.1"
   inkscape:version="0.48.5 r10040"
   sodipodi:docname="New document 7">
  <defs
     id="defs3878" />
  <sodipodi:namedview
     id="base"
     pagecolor="#ffffff"
     bordercolor="#666666"
     borderopacity="1.0"
     inkscape:pageopacity="0.0"
     inkscape:pageshadow="2"
     inkscape:zoom="1.4"
     inkscape:cx="375"
     inkscape:cy="874.98586"
     inkscape:document-units="px"
     inkscape:current-layer="layer1"
     showgrid="false"
     inkscape:window-width="1333"
     inkscape:window-height="782"
     inkscape:window-x="20"
     inkscape:window-y="20"
     inkscape:window-maximized="0" />
  <metadata
     id="metadata3881">
    <rdf:RDF>
      <cc:Work
         rdf:about="">
        <dc:format>image/svg+xml</dc:format>
        <dc:type
           rdf:resource="http://purl.org/dc/dcmitype/StillImage" />
        <dc:title></dc:title>
      </cc:Work>
    </rdf:RDF>
  </metadata>
  <g
     inkscape:label="Layer 1"
     inkscape:groupmode="layer"
     id="layer1">
    <path
       style="fill:none;stroke:#000000;stroke-width:4;stroke-linecap:butt;stroke-linejoin:miter;stroke-opacity:1;stroke-miterlimit:4;stroke-dasharray:none"
       d="m 85.714286,309.50504 c 1.190476,-0.71429 2.329676,-1.52198 3.571428,-2.14286 0.212959,-0.10648 0.476191,0 0.714286,0 0.476191,0 0.966599,0.11549 1.428572,0 0.516501,-0.12912 0.923495,-0.54593 1.428571,-0.71428 0.225877,-0.0753 0.47619,0 0.714286,0 0.47619,0 0.952381,0 1.428571,0 1.666667,0 3.333333,0 5,0 0.70169,0 3.81329,0.15747 4.28571,0 0.50508,-0.16836 0.91207,-0.58516 1.42858,-0.71429 0.46197,-0.11549 0.95238,0 1.42857,0 0.47619,0 0.95238,0 1.42857,0 0.23809,0 0.48841,0.0753 0.71428,0 0.50508,-0.16836 0.91207,-0.58516 1.42858,-0.71429 0.56187,-0.14046 3.54291,0 4.28571,0 0.47619,0 0.9666,0.1155 1.42857,0 0.5165,-0.12912 0.91207,-0.58516 1.42857,-0.71428 0.46198,-0.11549 0.95238,0 1.42857,0 1.19048,0 2.38096,0 3.57143,0 3.57143,0 7.14286,0 10.71429,0 3.80952,0 7.61905,0 11.42857,0 0.72925,0 4.65298,-0.11567 5,0 0.31944,0.10648 0.41312,0.5637 0.71429,0.71428 0.47059,0.2353 3.62517,-0.22018 4.28571,0 0.31944,0.10648 0.41312,0.56371 0.71429,0.71429 0.47059,0.2353 3.62517,-0.22018 4.28571,0 0.31944,0.10648 0.39485,0.60781 0.71429,0.71429 0.45175,0.15058 0.95238,0 1.42857,0 0.47619,0 0.95238,0 1.42857,0 0.61899,0 2.44337,0.13792 2.85714,0 2.78174,-0.92725 0.0668,-0.71429 2.85714,-0.71429 2.38096,0 4.76191,0 7.14286,0 0.7428,0 3.72385,0.14047 4.28572,0 0.5165,-0.12912 0.90651,-0.60987 1.42857,-0.71429 1.16736,-0.23347 2.40407,0.23348 3.57143,0 0.7383,-0.14766 1.40017,-0.5905 2.14285,-0.71428 1.40914,-0.23486 2.87658,0.23485 4.28572,0 0.74268,-0.12378 1.40018,-0.59051 2.14285,-0.71429 0.70457,-0.11742 1.42858,0 2.14286,0 0.71429,0 1.42857,0 2.14286,0 1.90476,0 3.80952,0 5.71428,0 0.71429,0 1.44245,0.14009 2.14286,0 0.52206,-0.10441 0.90651,-0.60987 1.42857,-0.71428 0.70042,-0.14009 1.42857,0 2.14286,0 1.90476,0 3.80952,0 5.71429,0 5.23809,0 10.47619,0 15.71428,0 6.66667,0 13.33334,0 20,0 1.90476,0 3.80953,0 5.71429,0 0.71428,0 1.42857,0 2.14285,0 0.4762,0 0.96163,-0.0934 1.42858,0 0.7383,0.14766 1.40017,0.5905 2.14285,0.71428 0.70457,0.11743 1.42857,0 2.14286,0 0.71429,0 1.42857,0 2.14286,0 0.47619,0 0.96163,-0.0934 1.42857,0 0.7383,0.14766 1.40018,0.59051 2.14286,0.71429 1.40913,0.23485 2.88488,-0.28017 4.28571,0 0.52206,0.10441 0.90651,0.60987 1.42857,0.71428 1.40083,0.28017 2.87658,-0.23485 4.28572,0 0.74267,0.12378 1.40017,0.59051 2.14285,0.71429 1.40914,0.23486 2.88489,-0.28017 4.28572,0 0.52206,0.10441 0.90651,0.60987 1.42857,0.71429 2.71493,0.54298 1.57078,-0.54299 4.28571,0 0.52206,0.10441 0.90652,0.60987 1.42857,0.71428 0.70042,0.14008 1.43829,-0.11743 2.14286,0 0.74268,0.12378 1.40018,0.59051 2.14286,0.71429 0.70457,0.11743 1.44244,-0.14009 2.14286,0 0.52205,0.10441 0.90651,0.60987 1.42857,0.71428 0.70041,0.14009 1.42857,0 2.14285,0 1.42858,0 2.85715,0 4.28572,0 0.71428,0 1.43829,-0.11742 2.14286,0 0.74267,0.12378 1.40017,0.59051 2.14285,0.71429 0.70457,0.11743 1.42857,0 2.14286,0 1.42857,0 2.85714,0 4.28571,0 3.57143,0 7.14286,0 10.71429,0 4.76191,0 9.52381,0 14.28571,0 1.90477,0 3.80953,0 5.71429,0 0.47619,0 0.96163,0.0934 1.42857,0 0.7383,-0.14766 1.40456,-0.56663 2.14286,-0.71429 0.46694,-0.0934 0.95238,0 1.42857,0 0.71429,0 1.42857,0 2.14286,0 0.47619,0 0.9666,0.1155 1.42857,0 0.5165,-0.12912 0.91207,-0.58516 1.42857,-0.71428 1.24018,-0.31005 3.04554,0.31004 4.28571,0 0.51651,-0.12913 0.91208,-0.58516 1.42858,-0.71429 0.46197,-0.11549 0.95238,0 1.42857,0 1.42857,0 2.85714,0 4.28571,0 0.47619,0 0.95238,0 1.42857,0 0.2381,0 0.48841,0.0753 0.71429,0 0.50508,-0.16836 0.91207,-0.58516 1.42857,-0.71428 0.92395,-0.23099 1.95364,0.30117 2.85714,0 0.31944,-0.10648 0.43412,-0.52751 0.71429,-0.71429 0.44298,-0.29532 0.92349,-0.54593 1.42857,-0.71429 0.22588,-0.0753 0.48841,0.0753 0.71429,0 2.58949,-0.86316 0.50835,-0.3389 2.14285,-1.42857 0.44298,-0.29532 0.98559,-0.41896 1.42857,-0.71428 0.29345,-0.19563 1.94723,-1.84941 2.14286,-2.14286 0.0887,-0.13305 1.3828,-2.81137 1.42857,-2.85714 0.37646,-0.37646 1.10914,-0.28837 1.42857,-0.71429 0.45176,-0.60234 0.43466,-1.44378 0.71429,-2.14286 0.19773,-0.49431 0.44037,-0.97204 0.71429,-1.42857 0.88335,-1.47225 2.0893,-2.75004 2.85714,-4.28571 4.00677,-8.01354 -3.80252,5.4044 2.14286,-5 0.42591,-0.74536 1.04465,-1.37502 1.42857,-2.14286 0.72027,-1.44053 0.49238,-2.32318 1.42857,-3.57143 0.40406,-0.53874 1.08209,-0.8511 1.42857,-1.42857 0.38738,-0.64562 0.43466,-1.44378 0.71429,-2.14286 0.19772,-0.49431 0.47619,-0.95238 0.71428,-1.42857 0.2381,-0.47619 0.33783,-1.05211 0.71429,-1.42857 0.37646,-0.37646 1.05211,-0.33782 1.42857,-0.71428 0.37646,-0.37647 0.39485,-1.00266 0.71428,-1.42858 0.40407,-0.53874 0.95239,-0.95238 1.42858,-1.42857 0.47619,-0.47619 0.95238,-0.95238 1.42857,-1.42857 0.95238,-0.95238 1.90476,-1.90476 2.85714,-2.85714 0.47619,-0.47619 0.90271,-1.00788 1.42857,-1.42857 0.83512,-1.29626 2.46077,-1.30987 3.57143,-2.14286 0.53875,-0.40406 0.95238,-0.95238 1.42857,-1.42857 0.47619,-0.47619 0.95238,-0.95238 1.42857,-1.42857 0.47619,-0.47619 1.02451,-0.88983 1.42857,-1.42857 0.31944,-0.42592 0.33783,-1.05211 0.71429,-1.42858 0.60703,-0.60702 1.53583,-0.82154 2.14286,-1.42857 1.21405,-1.21405 1.75799,-2.96673 2.85714,-4.28571 1.29337,-1.55204 2.97092,-2.75179 4.28571,-4.28572 6.43246,-7.50453 -1.65484,1.6025 3.57143,-5.71428 0.58714,-0.822 1.42857,-1.42857 2.14286,-2.14286 1.42857,-1.42857 2.99235,-2.73367 4.28571,-4.28571 0.54958,-0.65949 0.8923,-1.47251 1.42858,-2.14286 1.53302,-1.91628 1.5089,-1.20712 3.57142,-2.85714 1.56795,-1.25436 2.71777,-3.03136 4.28572,-4.28572 1.3407,-1.07255 2.85714,-1.90476 4.28571,-2.85714 0.71429,-0.47619 1.53583,-0.82154 2.14286,-1.42857 0.60703,-0.60703 0.82155,-1.53583 1.42857,-2.14286 0.60703,-0.60702 1.47251,-0.89229 2.14286,-1.42857 0.52586,-0.42069 0.90271,-1.00788 1.42857,-1.42857 0.67035,-0.53628 1.47251,-0.89229 2.14286,-1.42857 2.73372,-2.18698 0.39321,-0.52428 2.14285,-2.85715 1.2,-1.6 3.08572,-2.68571 4.28572,-4.28571 0.31944,-0.42592 0.39485,-1.00265 0.71428,-1.42857 1.2,-1.6 3.08572,-2.68572 4.28572,-4.28572 0.31944,-0.42591 0.39485,-1.00265 0.71428,-1.42857 0.40407,-0.53874 1.02452,-0.88982 1.42858,-1.42857 0.31943,-0.42592 0.39484,-1.00265 0.71428,-1.42857 0.40406,-0.53875 0.95238,-0.95238 1.42857,-1.42857 1.42857,-1.42857 2.85715,-2.85714 4.28572,-4.28572 0.47619,-0.47619 1.00788,-0.9027 1.42857,-1.42857 0.53628,-0.67035 0.89229,-1.47251 1.42857,-2.14285 0.84138,-1.05173 2.01576,-1.80542 2.85714,-2.85715 0.53628,-0.67035 0.8923,-1.47251 1.42857,-2.14285 0.4207,-0.52587 0.95239,-0.95238 1.42858,-1.42858 1.66666,-1.66666 3.33333,-3.33333 5,-5 3.4493,-3.4493 -0.93389,0.74711 3.57142,-2.85714 1.05173,-0.84138 1.80542,-2.01576 2.85715,-2.85714 0.67035,-0.53628 1.47251,-0.89229 2.14285,-1.42857 0.52587,-0.42069 0.88983,-1.02451 1.42858,-1.42857 0.42591,-0.31944 1.00265,-0.39485 1.42857,-0.71429 5.13784,-3.85338 -1.50742,0.79313 2.14285,-2.85714 0.37647,-0.37646 1.00266,-0.39485 1.42858,-0.71429 1.07749,-0.80812 1.77964,-2.04902 2.85714,-2.85714 0.42592,-0.31944 1.00265,-0.39485 1.42857,-0.71429 1.4804,-1.1103 2.81667,-3.11048 4.28571,-4.28571 0.67035,-0.53628 1.47251,-0.89229 2.14286,-1.42857 1.05173,-0.84139 1.80542,-2.01576 2.85714,-2.85715 2.06253,-1.65002 2.03841,-0.94086 3.57143,-2.85714 0.53628,-0.67035 0.8923,-1.47251 1.42857,-2.14286 0.84139,-1.05172 2.04903,-1.77964 2.85715,-2.85714 0.31944,-0.42592 0.47619,-0.95238 0.71428,-1.42857 0.47619,-0.71429 0.8923,-1.47251 1.42857,-2.14286 0.4207,-0.52586 1.02452,-0.88982 1.42858,-1.42857 0.63887,-0.85183 0.78969,-2.00531 1.42857,-2.85714 3.08949,-3.08949 0.11194,0.18922 2.14285,-2.85714 0.56034,-0.8405 1.53677,-1.33474 2.14286,-2.14286 0.31944,-0.42592 0.47619,-0.95238 0.71429,-1.42857 0.23809,-0.47619 0.51656,-0.93426 0.71428,-1.42857 0.27963,-0.69908 0.32691,-1.49723 0.71429,-2.14286 0.34648,-0.57747 1.02451,-0.88982 1.42857,-1.42857 0.71791,-0.95722 1.01699,-2.54248 1.42857,-3.57143 0.19773,-0.49432 0.47619,-0.95238 0.71429,-1.42857 0.23809,-0.47619 0.39485,-1.00266 0.71428,-1.42857 0.40406,-0.53875 1.0821,-0.85111 1.42857,-1.42858 0.38738,-0.64562 0.32691,-1.49723 0.71429,-2.14285 0.34648,-0.57747 1.02451,-0.88983 1.42857,-1.42857 0.31944,-0.42592 0.44037,-0.97205 0.71429,-1.42858 0.44167,-0.73612 0.98689,-1.40673 1.42857,-2.14285 0.27392,-0.45653 0.39485,-1.00266 0.71428,-1.42857 0.40407,-0.53875 1.02452,-0.88983 1.42858,-1.42858 0.63887,-0.85183 0.78969,-2.0053 1.42857,-2.85714 0.80812,-1.07749 2.04902,-1.77965 2.85714,-2.857141 0.31944,-0.425918 0.39485,-1.002654 0.71429,-1.428572 0.40406,-0.538748 0.95238,-0.952381 1.42857,-1.428571 1.19047,-1.190476 2.38095,-2.380952 3.57143,-3.571429 0.47619,-0.47619 1.00788,-0.902707 1.42857,-1.428571 1.29625,-0.835122 1.30986,-2.460771 2.14285,-3.571429 0.40407,-0.538748 1.02452,-0.889823 1.42858,-1.428571 0.31943,-0.425918 0.33782,-1.05211 0.71428,-1.428572 0.37646,-0.376461 1.05211,-0.337824 1.42857,-0.714285 0.58296,-0.582953 1.52565,-3.462774 2.14286,-4.285715 0.40406,-0.538748 1.02451,-0.889823 1.42857,-1.428571 0.63888,-0.851835 0.67565,-2.10422 1.42857,-2.857143 0.37647,-0.376461 1.00266,-0.394847 1.42857,-0.714286 2.49941,-1.874551 0.57846,-0.771273 2.14286,-2.857142 0.60609,-0.808122 1.58253,-1.30236 2.14286,-2.142858 0.29532,-0.442981 0.41896,-0.98559 0.71428,-1.428571 0.37356,-0.560332 1.05502,-0.86824 1.42858,-1.428571 1.32076,0.146137 0.49068,-1.695644 0.71428,-2.142858 0.31655,-0.633098 1.70938,-1.492632 2.14286,-2.142857 0.29532,-0.442981 0.41896,-0.98559 0.71428,-1.428571 0.18678,-0.280166 0.60781,-0.394848 0.71429,-0.714286 0.15059,-0.451754 -0.15058,-0.976817 0,-1.428571 0.21296,-0.638877 1.21561,-0.789695 1.42857,-1.428572 0.15059,-0.451754 -0.15058,-0.976817 0,-1.428571 0.21193,-0.635771 1.93094,-1.507086 2.14286,-2.142857 0.15058,-0.451754 -0.15059,-0.976818 0,-1.428572 0.21296,-0.638876 1.1274,-0.826233 1.42857,-1.428571 0.10648,-0.212959 -0.10648,-0.501327 0,-0.714286 0.30117,-0.602338 1.05502,-0.868239 1.42857,-1.428571 0.29532,-0.442981 0.41897,-0.985591 0.71429,-1.428572 0.37355,-0.560332 1.05501,-0.868239 1.42857,-1.428571 0.29532,-0.442981 0.41896,-0.98559 0.71428,-1.428572 0.18678,-0.280165 0.52751,-0.434119 0.71429,-0.714285 0.29532,-0.442981 0.41897,-0.985591 0.71429,-1.428572 0.4109,-0.616357 1.58493,-1.584938 2.14285,-2.142857 0.2381,-0.238095 0.5637,-0.413116 0.71429,-0.714286 0.10648,-0.212958 -0.10648,-0.501326 0,-0.714285 0.30117,-0.602339 1.1274,-0.826233 1.42857,-1.428572 0.10648,-0.212959 -0.10648,-0.501327 0,-0.714285 0.15059,-0.30117 0.47619,-0.476191 0.71429,-0.714286 0.71428,-0.714286 1.42857,-1.428572 2.14285,-2.142857 0.47619,-0.476191 1.05502,-0.86824 1.42857,-1.428572 1.72975,-2.594611 -0.20916,-0.505118 1.42858,-2.142857 0.95238,-0.952381 1.90476,-1.904762 2.85714,-2.857143 0.23809,-0.238095 0.47619,-0.47619 0.71428,-0.714285 0.2381,-0.238096 0.56371,-0.413117 0.71429,-0.714286 0.10648,-0.212959 -0.10648,-0.501327 0,-0.714286 0.30117,-0.602338 1.1274,-0.826233 1.42857,-1.428571 0.10648,-0.212959 -0.10648,-0.501327 0,-0.714286 0.15059,-0.301169 0.5637,-0.413116 0.71429,-0.714286 0.10648,-0.212959 -0.16836,-0.545927 0,-0.714285 0.16836,-0.168359 0.54592,0.168358 0.71428,0 0.16836,-0.168359 -0.10648,-0.501327 0,-0.714286 0.30117,-0.602339 1.12741,-0.826233 1.42857,-1.428572 0.10648,-0.212958 -0.16835,-0.545927 0,-0.714285 0.16836,-0.168359 0.54593,0.168358 0.71429,0 0.33672,-0.336718 -0.33672,-1.091854 0,-1.428572 0.16836,-0.168359 0.54593,0.168359 0.71429,0 0.95238,-0.952381 -1.19048,-0.714285 0.71428,-0.714285"
       id="path3884"
       inkscape:connector-curvature="0" />
    <path
       style="fill:none;stroke:#000000;stroke-width:4;stroke-linecap:butt;stroke-linejoin:miter;stroke-opacity:1;stroke-miterlimit:4;stroke-dasharray:none"
       d="m 282.85714,296.6479 c 1.66667,0 3.33334,0 5,0 0.2381,0 0.50133,0.10648 0.71429,0 0.30117,-0.15059 0.39485,-0.60781 0.71428,-0.71429 0.67764,-0.22588 1.42858,0 2.14286,0 1.42857,0 2.85714,0 4.28572,0 0.49681,0 3.31311,-0.12915 3.57142,0 0.30117,0.15059 0.41312,0.5637 0.71429,0.71429 0.42592,0.21295 1.09185,-0.33672 1.42857,0 0.16836,0.16835 -0.16836,0.54592 0,0.71428 0.16836,0.16836 0.50133,-0.10648 0.71429,0 0.30117,0.15059 0.41311,0.5637 0.71428,0.71429 0.45062,0.22531 3.12081,-0.22531 3.57143,0 0.30117,0.15058 0.41312,0.5637 0.71429,0.71428 0.21296,0.10648 0.50132,-0.10648 0.71428,0 0.30117,0.15059 0.41312,0.5637 0.71429,0.71429 0.18781,0.0939 2.48363,0 2.85714,0 2.85714,0 5.71429,0 8.57143,0 0.49681,0 3.31312,-0.12916 3.57143,0 0.30117,0.15058 0.41312,0.5637 0.71428,0.71428 0.21739,0.1087 1.82118,0 2.14286,0 1.42857,0 2.85714,0 4.28572,0 0.32168,0 1.92547,-0.10869 2.14285,0 0.30117,0.15059 0.41312,0.56371 0.71429,0.71429 0.21738,0.10869 1.82117,0 2.14286,0 1.42857,0 2.85714,0 4.28571,0 3.57143,0 7.14286,0 10.71429,0 1.90476,0 -0.2381,-0.23809 0.71428,0.71429 0.16836,0.16835 0.47619,0 0.71429,0 0.23809,0 0.47619,0 0.71428,0 1.90477,0 3.80953,0 5.71429,0 0.23809,0 0.47619,0 0.71428,0 0.2381,0 0.54593,0.16835 0.71429,0 0.16836,-0.16836 -0.16836,-0.54593 0,-0.71429 0.35714,-0.35714 1.78571,0.35714 2.14286,0 0.16836,-0.16836 -0.16836,-0.54593 0,-0.71429 0.33672,-0.33671 1.00265,0.21296 1.42857,0 0.30117,-0.15058 0.41312,-0.5637 0.71428,-0.71428 0.21296,-0.10648 0.50133,0.10648 0.71429,0 0.30117,-0.15059 0.41312,-0.5637 0.71429,-0.71429 0.57142,-0.28571 1.57142,0.28572 2.14285,0 0.30117,-0.15058 0.41312,-0.5637 0.71429,-0.71428 0.42592,-0.21296 1.09185,0.33672 1.42857,0 0.16836,-0.16836 -0.16836,-0.54593 0,-0.71429 0.16836,-0.16836 0.54593,0.16836 0.71429,0 0.16835,-0.16836 -0.16836,-0.54593 0,-0.71428 0.16835,-0.16836 0.54592,0.16835 0.71428,0 0.16836,-0.16836 -0.16836,-0.54593 0,-0.71429 0.16836,-0.16836 0.54593,0.16836 0.71429,0 0.16836,-0.16836 -0.16836,-0.54593 0,-0.71429 0.16836,-0.16835 0.54592,0.16836 0.71428,0 0.16836,-0.16835 -0.10648,-0.50132 0,-0.71428 0.12716,-0.25431 1.30142,-1.17427 1.42857,-1.42857 0.10648,-0.21296 -0.10647,-0.50133 0,-0.71429 2.36899,-2.36899 -0.33671,0.67344 0.71429,-1.42857 0.15059,-0.30117 0.5637,-0.41312 0.71429,-0.71429 0.10648,-0.21295 -0.10648,-0.50132 0,-0.71428 0.15058,-0.30117 0.5637,-0.41312 0.71428,-0.71429 0.10648,-0.21296 0,-0.47619 0,-0.71428 0.2381,-0.47619 0.41897,-0.98559 0.71429,-1.42857 0.37355,-0.56034 1.05501,-0.86824 1.42857,-1.42858 2.58949,-5.17898 -0.75292,1.12939 1.42857,-2.14285 0.59064,-0.88596 0.83793,-1.97118 1.42857,-2.85715 0.37356,-0.56033 1.05502,-0.86823 1.42857,-1.42857 0.29532,-0.44298 0.41897,-0.98559 0.71429,-1.42857 0.37355,-0.56033 1.05502,-0.86824 1.42857,-1.42857 0.29532,-0.44298 0.41897,-0.98559 0.71429,-1.42857 0.54945,-0.82418 1.5934,-1.31868 2.14285,-2.14286 0.29532,-0.44298 0.33783,-1.05211 0.71429,-1.42857 0.43755,-0.43755 1.86936,-0.60808 2.14286,-1.42857 0.15058,-0.45176 -0.15059,-0.97682 0,-1.42857 0.21295,-0.63888 1.1274,-0.82624 1.42857,-1.42857 0.28571,-0.57143 -0.28572,-1.57143 0,-2.14286 0.15058,-0.30117 0.5637,-0.41312 0.71428,-0.71429 0.38067,-0.76134 -0.38067,-0.66723 0,-1.42857 0.15059,-0.30117 0.5637,-0.41311 0.71429,-0.71428 0.10648,-0.21296 -0.10648,-0.50133 0,-0.71429 0.30117,-0.60234 1.1274,-0.82623 1.42857,-1.42857 0.10648,-0.21296 -0.16836,-0.54593 0,-0.71429 0.16836,-0.16836 0.54593,0.16836 0.71429,0 0.16835,-0.16836 -0.16836,-0.54592 0,-0.71428 0.16835,-0.16836 0.54592,0.16836 0.71428,0 0.16836,-0.16836 -0.16836,-0.54593 0,-0.71429 0.16836,-0.16836 0.54593,0.16836 0.71429,0 0.16836,-0.16836 -0.16836,-0.54593 0,-0.71428 0.16836,-0.16836 0.50132,0.10648 0.71428,0 0.6331,-0.31655 1.49264,-1.70938 2.14286,-2.14286 0.44298,-0.29532 0.98559,-0.41897 1.42857,-0.71429 1.47194,-0.98129 -0.047,-1.40504 1.42857,-2.14285 0.21296,-0.10648 0.54593,0.16835 0.71429,0 0.33672,-0.33672 -0.21296,-1.00266 0,-1.42858 0.15058,-0.30116 0.5637,-0.41311 0.71428,-0.71428 0.10648,-0.21296 -0.16835,-0.54593 0,-0.71429 0.16836,-0.16836 0.54593,0.16836 0.71429,0 0.16836,-0.16836 -0.16836,-0.54592 0,-0.71428 0.16836,-0.16836 0.54593,0.16836 0.71429,0 0.16835,-0.16836 -0.10648,-0.50133 0,-0.71429 0.15058,-0.30117 0.5637,-0.41311 0.71428,-0.71428 0.10648,-0.21296 -0.16836,-0.54593 0,-0.71429 0.16836,-0.16836 0.54593,0.16836 0.71429,0 0.16836,-0.16836 0,-0.47619 0,-0.71429 0.23809,0 0.54592,0.16836 0.71428,0 0.16836,-0.16835 -0.16836,-0.54592 0,-0.71428 0.16836,-0.16836 0.54593,0.16836 0.71429,0 0.47702,-0.47702 -0.47702,-0.95155 0,-1.42857 0.16836,-0.16836 0.54593,0.16836 0.71428,0 0.16836,-0.16836 -0.16835,-0.54593 0,-0.71429 1.47789,-1.47788 -0.0578,2.2584 1.42858,-0.71428 0.10648,-0.21296 -0.10648,-0.50133 0,-0.71429 0.22749,-0.45498 3.01016,-3.01017 3.57142,-3.57143 0.2381,-0.23809 0.56371,-0.41311 0.71429,-0.71428 0.10648,-0.21296 -0.16836,-0.54593 0,-0.71429 0.16836,-0.16836 0.54593,0.16836 0.71429,0 0.16835,-0.16836 -0.10648,-0.50133 0,-0.71429 0.15058,-0.30116 0.5637,-0.41311 0.71428,-0.71428 0.10648,-0.21296 -0.16836,-0.54593 0,-0.71429 0.16836,-0.16836 0.50133,0.10648 0.71429,0 0.38149,-0.19074 1.76681,-1.76681 2.14285,-2.14285 0.37605,-0.37605 1.95212,-1.76137 2.14286,-2.14286 0.10648,-0.21296 -0.10648,-0.50133 0,-0.71429 0.42857,-0.85714 1.71429,-1.28571 2.14286,-2.14285 0.10648,-0.21296 -0.10648,-0.50133 0,-0.71429 0.0684,-0.13673 2.72041,-2.78878 2.85714,-2.85714 0.21296,-0.10648 0.54593,0.16836 0.71429,0 0.16836,-0.16836 -0.10648,-0.50133 0,-0.71429 1.48634,-2.97268 -0.0493,0.7636 1.42857,-0.71428 0.16836,-0.16836 -0.10648,-0.50133 0,-0.71429 0.78966,-1.57932 0.44332,-0.22166 1.42857,-0.71429 0.38149,-0.19074 1.76681,-1.76681 2.14286,-2.14285 0.37604,-0.37605 1.95211,-1.76137 2.14285,-2.14286 0.10648,-0.21296 -0.10647,-0.50133 0,-0.71429 0.30117,-0.60233 1.12741,-0.82623 1.42858,-1.42857 0.10648,-0.21296 -0.16836,-0.54592 0,-0.71428 0.16835,-0.16836 0.54592,0.16836 0.71428,0 0.16836,-0.16836 -0.16836,-0.54593 0,-0.71429 1.47788,-1.47788 -0.0578,2.2584 1.42857,-0.71428 0.10648,-0.21296 -0.16836,-0.54593 0,-0.71429 1.47789,-1.47788 -0.0578,2.2584 1.42857,-0.71429 0.10648,-0.21295 -0.10647,-0.50132 0,-0.71428 0.0684,-0.13673 2.72042,-2.78878 2.85715,-2.85714 0.21296,-0.10648 0.54592,0.16835 0.71428,0 0.16836,-0.16836 -0.16836,-0.54593 0,-0.71429 0.16836,-0.16836 0.54593,0.16836 0.71429,0 0.16836,-0.16836 -0.10648,-0.50133 0,-0.71429 0.15058,-0.30116 0.5637,-0.41311 0.71428,-0.71428 0.10648,-0.21296 -0.16835,-0.54593 0,-0.71429 0.16836,-0.16836 0.50133,0.10648 0.71429,0 0.30117,-0.15058 0.41312,-0.5637 0.71429,-0.71428 0.21296,-0.10648 0.54592,0.16836 0.71428,0 0.16836,-0.16836 -0.16836,-0.54593 0,-0.71429 0.16836,-0.16836 0.47619,0 0.71429,0 0,-0.23809 -0.16836,-0.54593 0,-0.71428 0.16836,-0.16836 0.54592,0.16835 0.71428,0 0.16836,-0.16836 -0.16836,-0.54593 0,-0.71429 0.16836,-0.16836 0.50133,0.10648 0.71429,0 0.88264,-0.44132 0.71428,-0.68963 0.71428,-1.42857"
       id="path3888"
       inkscape:connector-curvature="0" />
  </g>
</svg>
