<?xml version="1.0" encoding="UTF-8" standalone="no"?>
<!-- Created with Inkscape (http://www.inkscape.org/) -->

<svg
   xmlns:dc="http://purl.org/dc/elements/1.1/"
   xmlns:cc="http://creativecommons.org/ns#"
   xmlns:rdf="http://www.w3.org/1999/02/22-rdf-syntax-ns#"
   xmlns:svg="http://www.w3.org/2000/svg"
   xmlns="http://www.w3.org/2000/svg"
   xmlns:sodipodi="http://sodipodi.sourceforge.net/DTD/sodipodi-0.dtd"
   xmlns:inkscape="http://www.inkscape.org/namespaces/inkscape"
   width="744.09448819"
   height="1052.3622047"
   id="svg2"
   version="1.1"
   inkscape:version="0.48.5 r10040"
   sodipodi:docname="New document 1">
  <defs
     id="defs4" />
  <sodipodi:namedview
     id="base"
     pagecolor="#ffffff"
     bordercolor="#666666"
     borderopacity="1.0"
     inkscape:pageopacity="0.0"
     inkscape:pageshadow="2"
     inkscape:zoom="1.4"
     inkscape:cx="375"
     inkscape:cy="857.95506"
     inkscape:document-units="px"
     inkscape:current-layer="layer1"
     showgrid="false"
     inkscape:window-width="1440"
     inkscape:window-height="852"
     inkscape:window-x="0"
     inkscape:window-y="0"
     inkscape:window-maximized="1" />
  <metadata
     id="metadata7">
    <rdf:RDF>
      <cc:Work
         rdf:about="">
        <dc:format>image/svg+xml</dc:format>
        <dc:type
           rdf:resource="http://purl.org/dc/dcmitype/StillImage" />
        <dc:title></dc:title>
      </cc:Work>
    </rdf:RDF>
  </metadata>
  <g
     inkscape:label="Layer 1"
     inkscape:groupmode="layer"
     id="layer1">
    <path
       style="fill:none;stroke:#000000;stroke-width:3;stroke-linecap:butt;stroke-linejoin:miter;stroke-opacity:1;stroke-miterlimit:4;stroke-dasharray:none"
       d="m 141.42857,237.36218 c 0.95238,0 2.85714,-0.95238 2.85714,0 0,0.95238 -3.80952,0 -2.85714,0 7.61905,0 15.2381,0 22.85714,0 2.14286,0 4.28572,0 6.42858,0 0.58478,0 3.10863,-0.15426 3.57142,0 0.50508,0.16836 0.90652,0.60988 1.42858,0.71429 1.16735,0.23347 2.38095,0 3.57142,0 3.57143,0 7.14286,0 10.71429,0 0.84757,0 5.02106,-0.13865 5.71429,0 0.52205,0.10441 0.91207,0.58516 1.42857,0.71428 0.46197,0.1155 0.95238,0 1.42857,0 1.90476,0 3.80952,0 5.71428,0 1.90477,0 3.80953,0 5.71429,0 0.71429,0 1.43829,0.11743 2.14286,0 0.74268,-0.12378 1.40455,-0.56662 2.14285,-0.71428 0.46695,-0.0934 0.96163,0.0934 1.42858,0 0.7383,-0.14766 1.40017,-0.59051 2.14285,-0.71429 0.70457,-0.11743 1.42857,0 2.14286,0 0.71429,0 1.42857,0 2.14286,0 0.71428,0 1.44244,0.14008 2.14285,0 0.52206,-0.10441 0.90652,-0.60987 1.42858,-0.71428 1.14468,-0.22894 2.42674,0.22893 3.57142,0 0.73831,-0.14766 1.40456,-0.56663 2.14286,-0.71429 1.31724,-0.26345 3.69075,0.26185 5,0 0.52206,-0.10441 0.91207,-0.58516 1.42857,-0.71429 0.46198,-0.11549 0.95238,0 1.42857,0 0.71429,0 1.42858,0 2.14286,0 1.66667,0 3.33334,0 5,0 6.66667,0 13.33334,0 20,0 6.42857,0 12.85714,0 19.28572,0 2.61904,0 5.23809,0 7.85714,0 0.95238,0 1.91212,0.11813 2.85714,0 0.97411,-0.12176 1.88303,-0.59252 2.85714,-0.71428 2.12631,-0.26579 4.29883,0.23664 6.42858,0 0.97568,-0.10841 1.88303,-0.59252 2.85714,-0.71429 2.12631,-0.26579 4.29882,0.23664 6.42857,0 0.97569,-0.10841 1.88146,-0.60587 2.85714,-0.71428 1.1832,-0.13147 2.38096,0 3.57143,0 2.14286,0 4.28572,0 6.42857,0 4.28572,0 8.57143,0 12.85715,0 0.95238,0 1.90476,0 2.85714,0 0.95238,0 1.91212,-0.11813 2.85714,0 0.97411,0.12176 1.88303,0.59252 2.85714,0.71428 2.12631,0.26579 4.29883,-0.23664 6.42858,0 0.97568,0.10841 1.88303,0.59253 2.85714,0.71429 2.59146,0.32393 5.97997,-0.32393 8.57143,0 0.97411,0.12176 1.88303,0.59252 2.85714,0.71428 0.94503,0.11813 1.90476,0 2.85714,0 0.95238,0 1.90477,0 2.85715,0 0.95238,0 1.91058,-0.10517 2.85714,0 1.20663,0.13407 2.3648,0.58022 3.57143,0.71429 0.94655,0.10517 1.90476,0 2.85714,0 3.09524,0 6.19048,0 9.28571,0 9.52381,0 19.04762,0 28.57143,0 6.58998,0 -0.90262,-0.23099 5.71429,0.71429 0.70711,0.10101 1.42857,0 2.14286,0 0.95238,0 1.90476,0 2.85714,0 2.38095,0 4.7619,0 7.14286,0 7.14285,0 14.28571,0 21.42857,0 3.80952,0 7.61905,0 11.42857,0 1.42857,0 2.85714,0 4.28571,0 0.71429,0 1.44245,0.14008 2.14286,0 0.52206,-0.10442 0.90651,-0.60988 1.42857,-0.71429 1.16736,-0.23347 2.38095,0 3.57143,0 2.61905,0 5.2381,0 7.85714,0 0.71429,0 1.42857,0 2.14286,0 0.47619,0 0.96163,0.0934 1.42857,0 0.7383,-0.14766 1.40018,-0.59051 2.14286,-0.71429 0.70457,-0.11742 1.42857,0 2.14286,0 1.19047,0 2.38095,0 3.57142,0 3.57143,0 7.14286,0 10.71429,0 6.90476,0 13.80952,0 20.71429,0 2.38095,0 4.7619,0 7.14285,0 0.47619,0 0.95238,0 1.42857,0 0.4762,0 0.9666,0.1155 1.42858,0 0.5165,-0.12912 0.91207,-0.58516 1.42857,-0.71428 0.46197,-0.11549 0.95238,0 1.42857,0 0.47619,0 0.95238,0 1.42857,0 2.38095,0 4.76191,0 7.14286,0 0.8021,0 4.48935,0.17021 5,0 0.50507,-0.16836 0.91207,-0.58516 1.42857,-0.71429 0.69296,-0.17324 1.42857,0 2.14286,0 1.66666,0 3.33333,0 5,0 3.33333,0 6.66666,0 10,0 1.66666,0 3.33333,0 5,0 0.47619,0 0.96162,0.0934 1.42857,0 0.7383,-0.14766 1.40455,-0.56662 2.14285,-0.71428 0.46695,-0.0934 0.95239,0 1.42858,0 1.42857,0 2.85714,0 4.28571,0 4.28571,0 8.57143,0 12.85714,0 1.42857,0 2.85715,0 4.28572,0 0.47619,0 0.95238,0 1.42857,0 0.23809,0 0.48841,-0.0753 0.71428,0 0.50508,0.16836 0.9235,0.54592 1.42858,0.71428 0.47242,0.15748 3.58402,0 4.28571,0 2.85714,0 5.71429,0 8.57143,0 3.33333,0 6.66667,0 10,0 1.42857,0 2.85714,0 4.28571,0 0.47619,0 0.9666,-0.11549 1.42857,0 0.51651,0.12913 0.9235,0.54593 1.42858,0.71429 0.403,0.13433 1.67349,0 2.14285,0 1.19048,0 2.38096,0 3.57143,0 1.19048,0 2.38095,0 3.57143,0 0.2381,0 0.47619,0 0.71429,0 0.23809,0 0.50132,0.10648 0.71428,0 1.76529,-0.88265 -0.24655,-0.71429 1.42857,-0.71429 0.49682,0 3.31312,0.12916 3.57143,0 0.30117,-0.15058 0.41312,-0.5637 0.71429,-0.71428 0.57143,-0.28572 1.57143,0.28571 2.14285,0 0.30117,-0.15059 0.41312,-0.5637 0.71429,-0.71429 0.21296,-0.10648 0.54593,0.16836 0.71429,0 0.57731,-0.57731 -1.73789,-2.45217 -2.14286,-2.85714"
       id="path3101"
       inkscape:connector-curvature="0" />
    <path
       style="fill:none;stroke:#000000;stroke-width:3;stroke-linecap:butt;stroke-linejoin:miter;stroke-opacity:1;stroke-miterlimit:4;stroke-dasharray:none"
       d="m 314.85714,229.93361 c 0.95238,0 2.85715,-0.95238 2.85715,0 0,0.95238 -3.80953,0 -2.85715,0 1.42857,0 2.85715,0 4.28572,0 0.17323,0 2.11988,0.023 2.14285,0 0.16836,-0.16836 -0.16835,-0.54593 0,-0.71429 0.0288,-0.0287 2.59484,0 2.85715,0 3.09524,0 6.19047,0 9.28571,0 0.50629,0 4.10104,-0.0923 4.28572,0 0.30117,0.15059 0.41311,0.56371 0.71428,0.71429 0.43373,0.21687 3.85199,-0.21686 4.28572,0 0.30117,0.15058 0.41311,0.5637 0.71428,0.71429 0.21738,0.10869 1.82117,0 2.14286,0 1.90476,0 3.80952,0 5.71428,0 2.14286,0 4.28572,0 6.42858,0 0.23809,0 0.47619,0 0.71428,0 0.2381,0 0.54593,0.16835 0.71429,0 0.16836,-0.16836 -0.16836,-0.54593 0,-0.71429 0.16836,-0.16836 0.47619,0 0.71428,0 1.66667,0 3.33334,0 5,0 0.2381,0 0.47619,0 0.71429,0 0.23809,0 0.54593,0.16836 0.71428,0 0.16836,-0.16836 -0.16835,-0.54593 0,-0.71429 0.16836,-0.16835 0.4762,0 0.71429,0 0.2381,0 0.47619,0 0.71429,0 7.61904,0 15.23809,0 22.85714,0 0.33678,0 3.53905,0.0324 3.57143,0 0.16836,-0.16835 -0.16836,-0.54592 0,-0.71428 0.14602,-0.14603 1.85965,0.1416 2.14285,0 0.30117,-0.15059 0.41312,-0.5637 0.71429,-0.71429 0.21296,-0.10648 0.50133,0.10648 0.71429,0 0.30117,-0.15058 0.41311,-0.5637 0.71428,-0.71428 0.21296,-0.10648 0.50133,0.10648 0.71429,0 0.30117,-0.15059 0.41311,-0.5637 0.71428,-0.71429 0.21296,-0.10648 0.54593,0.16836 0.71429,0 0.16836,-0.16836 -0.16836,-0.54593 0,-0.71428 0.16836,-0.16836 0.50133,0.10648 0.71428,0 0.30117,-0.15059 0.41312,-0.56371 0.71429,-0.71429 0.21296,-0.10648 0.54593,0.16836 0.71429,0 0.16835,-0.16836 -0.16836,-0.54593 0,-0.71429 0.16835,-0.16835 0.50132,0.10648 0.71428,0 2.97269,-1.48634 -0.76359,0.0493 0.71429,-1.42857 0.16836,-0.16836 0.50132,0.10648 0.71428,0 2.97269,-1.48634 -0.76359,0.0493 0.71429,-1.42857 0.16836,-0.16836 0.54593,0.16836 0.71428,0 0.35715,-0.35714 -0.35714,-1.78571 0,-2.14286 0.16836,-0.16835 0.54593,0.16836 0.71429,0 0.33672,-0.33671 -0.21296,-1.00265 0,-1.42857 2.36899,-2.36898 -0.33672,0.67344 0.71429,-1.42857 0.15058,-0.30117 0.5637,-0.41311 0.71428,-0.71428 0.21296,-0.42592 -0.33672,-1.09186 0,-1.42858 0.16836,-0.16835 0.54593,0.16836 0.71429,0 0.35714,-0.35714 -0.35715,-1.78571 0,-2.14285 0.16836,-0.16836 0.54592,0.16836 0.71428,0 0.16836,-0.16836 0,-0.47619 0,-0.71429 0,-1.19047 0,-2.38095 0,-3.57143 0,-1.42857 0,-2.85714 0,-4.28571 0,-0.2381 0,-0.47619 0,-0.71429 0,-0.23809 -0.10648,-0.50132 0,-0.71428 0.15059,-0.30117 0.5637,-0.41312 0.71429,-0.71429 0.12915,-0.25831 0,-3.07461 0,-3.57143 0,-2.85714 0,-5.71428 0,-8.57143 0,-2.85714 0,-5.71428 0,-8.57142 0,-0.49682 0.12915,-3.31312 0,-3.57143 -0.15059,-0.30117 -0.5637,-0.41312 -0.71429,-0.71429 -0.10648,-0.21296 0,-0.47619 0,-0.71428 0,-0.2381 0,-0.47619 0,-0.71429 0,-1.19048 0,-2.38095 0,-3.57143 0,-3.80952 0,-7.61905 0,-11.42857"
       id="path3105"
       inkscape:connector-curvature="0" />
    <path
       style="fill:none;stroke:#000090;stroke-width:3;stroke-linecap:butt;stroke-linejoin:miter;stroke-opacity:1;stroke-miterlimit:4;stroke-dasharray:none"
       d="m 380.71429,89.790753 1.42857,127.142857 -284.285717,0 0,30.71429 615.714287,-0.71429 -0.71429,-28.57143 -291.42857,-0.71428 -2.85714,-128.571433 z"
       id="path3107"
       inkscape:connector-curvature="0" />
  </g>
</svg>
