<?xml version="1.0" encoding="UTF-8" standalone="no"?>
<!-- Created with Inkscape (http://www.inkscape.org/) -->

<svg
   xmlns:dc="http://purl.org/dc/elements/1.1/"
   xmlns:cc="http://creativecommons.org/ns#"
   xmlns:rdf="http://www.w3.org/1999/02/22-rdf-syntax-ns#"
   xmlns:svg="http://www.w3.org/2000/svg"
   xmlns="http://www.w3.org/2000/svg"
   xmlns:sodipodi="http://sodipodi.sourceforge.net/DTD/sodipodi-0.dtd"
   xmlns:inkscape="http://www.inkscape.org/namespaces/inkscape"
   width="744.09448819"
   height="1052.3622047"
   id="svg2"
   version="1.1"
   inkscape:version="0.48.5 r10040"
   sodipodi:docname="diverge_case2.svg"
   inkscape:export-filename="/Users/jse26711/opaque/doc/defense/diverge_case1.png"
   inkscape:export-xdpi="90"
   inkscape:export-ydpi="90">
  <defs
     id="defs4" />
  <sodipodi:namedview
     id="base"
     pagecolor="#ffffff"
     bordercolor="#666666"
     borderopacity="1.0"
     inkscape:pageopacity="0.0"
     inkscape:pageshadow="2"
     inkscape:zoom="1.4"
     inkscape:cx="254.64286"
     inkscape:cy="857.95506"
     inkscape:document-units="px"
     inkscape:current-layer="layer1"
     showgrid="false"
     inkscape:window-width="1440"
     inkscape:window-height="852"
     inkscape:window-x="0"
     inkscape:window-y="0"
     inkscape:window-maximized="1" />
  <metadata
     id="metadata7">
    <rdf:RDF>
      <cc:Work
         rdf:about="">
        <dc:format>image/svg+xml</dc:format>
        <dc:type
           rdf:resource="http://purl.org/dc/dcmitype/StillImage" />
        <dc:title></dc:title>
      </cc:Work>
    </rdf:RDF>
  </metadata>
  <g
     inkscape:label="Layer 1"
     inkscape:groupmode="layer"
     id="layer1">
    <path
       style="fill:none;stroke:#000000;stroke-width:3;stroke-linecap:butt;stroke-linejoin:miter;stroke-opacity:1;stroke-miterlimit:4;stroke-dasharray:none"
       d="m 141.42857,237.36218 c 0.95238,0 2.85714,-0.95238 2.85714,0 0,0.95238 -3.80952,0 -2.85714,0 7.61905,0 15.2381,0 22.85714,0 2.14286,0 4.28572,0 6.42858,0 0.58478,0 3.10863,-0.15426 3.57142,0 0.50508,0.16836 0.90652,0.60988 1.42858,0.71429 1.16735,0.23347 2.38095,0 3.57142,0 3.57143,0 7.14286,0 10.71429,0 0.84757,0 5.02106,-0.13865 5.71429,0 0.52205,0.10441 0.91207,0.58516 1.42857,0.71428 0.46197,0.1155 0.95238,0 1.42857,0 1.90476,0 3.80952,0 5.71428,0 1.90477,0 3.80953,0 5.71429,0 0.71429,0 1.43829,0.11743 2.14286,0 0.74268,-0.12378 1.40455,-0.56662 2.14285,-0.71428 0.46695,-0.0934 0.96163,0.0934 1.42858,0 0.7383,-0.14766 1.40017,-0.59051 2.14285,-0.71429 0.70457,-0.11743 1.42857,0 2.14286,0 0.71429,0 1.42857,0 2.14286,0 0.71428,0 1.44244,0.14008 2.14285,0 0.52206,-0.10441 0.90652,-0.60987 1.42858,-0.71428 1.14468,-0.22894 2.42674,0.22893 3.57142,0 0.73831,-0.14766 1.40456,-0.56663 2.14286,-0.71429 1.31724,-0.26345 3.69075,0.26185 5,0 0.52206,-0.10441 0.91207,-0.58516 1.42857,-0.71429 0.46198,-0.11549 0.95238,0 1.42857,0 0.71429,0 1.42858,0 2.14286,0 1.66667,0 3.33334,0 5,0 6.66667,0 13.33334,0 20,0 6.42857,0 12.85714,0 19.28572,0 2.61904,0 5.23809,0 7.85714,0 0.95238,0 1.91212,0.11813 2.85714,0 0.97411,-0.12176 1.88303,-0.59252 2.85714,-0.71428 2.12631,-0.26579 4.29883,0.23664 6.42858,0 0.97568,-0.10841 1.88303,-0.59252 2.85714,-0.71429 2.12631,-0.26579 4.29882,0.23664 6.42857,0 0.97569,-0.10841 1.88146,-0.60587 2.85714,-0.71428 1.1832,-0.13147 2.38096,0 3.57143,0 2.14286,0 4.28572,0 6.42857,0 4.28572,0 8.57143,0 12.85715,0 0.95238,0 1.90476,0 2.85714,0 0.95238,0 1.91212,-0.11813 2.85714,0 0.97411,0.12176 1.88303,0.59252 2.85714,0.71428 2.12631,0.26579 4.29883,-0.23664 6.42858,0 0.97568,0.10841 1.88303,0.59253 2.85714,0.71429 2.59146,0.32393 5.97997,-0.32393 8.57143,0 0.97411,0.12176 1.88303,0.59252 2.85714,0.71428 0.94503,0.11813 1.90476,0 2.85714,0 0.95238,0 1.90477,0 2.85715,0 0.95238,0 1.91058,-0.10517 2.85714,0 1.20663,0.13407 2.3648,0.58022 3.57143,0.71429 0.94655,0.10517 1.90476,0 2.85714,0 3.09524,0 6.19048,0 9.28571,0 9.52381,0 19.04762,0 28.57143,0 6.58998,0 -0.90262,-0.23099 5.71429,0.71429 0.70711,0.10101 1.42857,0 2.14286,0 0.95238,0 1.90476,0 2.85714,0 2.38095,0 4.7619,0 7.14286,0 7.14285,0 14.28571,0 21.42857,0 3.80952,0 7.61905,0 11.42857,0 1.42857,0 2.85714,0 4.28571,0 0.71429,0 1.44245,0.14008 2.14286,0 0.52206,-0.10442 0.90651,-0.60988 1.42857,-0.71429 1.16736,-0.23347 2.38095,0 3.57143,0 2.61905,0 5.2381,0 7.85714,0 0.71429,0 1.42857,0 2.14286,0 0.47619,0 0.96163,0.0934 1.42857,0 0.7383,-0.14766 1.40018,-0.59051 2.14286,-0.71429 0.70457,-0.11742 1.42857,0 2.14286,0 1.19047,0 2.38095,0 3.57142,0 3.57143,0 7.14286,0 10.71429,0 6.90476,0 13.80952,0 20.71429,0 2.38095,0 4.7619,0 7.14285,0 0.47619,0 0.95238,0 1.42857,0 0.4762,0 0.9666,0.1155 1.42858,0 0.5165,-0.12912 0.91207,-0.58516 1.42857,-0.71428 0.46197,-0.11549 0.95238,0 1.42857,0 0.47619,0 0.95238,0 1.42857,0 2.38095,0 4.76191,0 7.14286,0 0.8021,0 4.48935,0.17021 5,0 0.50507,-0.16836 0.91207,-0.58516 1.42857,-0.71429 0.69296,-0.17324 1.42857,0 2.14286,0 1.66666,0 3.33333,0 5,0 3.33333,0 6.66666,0 10,0 1.66666,0 3.33333,0 5,0 0.47619,0 0.96162,0.0934 1.42857,0 0.7383,-0.14766 1.40455,-0.56662 2.14285,-0.71428 0.46695,-0.0934 0.95239,0 1.42858,0 1.42857,0 2.85714,0 4.28571,0 4.28571,0 8.57143,0 12.85714,0 1.42857,0 2.85715,0 4.28572,0 0.47619,0 0.95238,0 1.42857,0 0.23809,0 0.48841,-0.0753 0.71428,0 0.50508,0.16836 0.9235,0.54592 1.42858,0.71428 0.47242,0.15748 3.58402,0 4.28571,0 2.85714,0 5.71429,0 8.57143,0 3.33333,0 6.66667,0 10,0 1.42857,0 2.85714,0 4.28571,0 0.47619,0 0.9666,-0.11549 1.42857,0 0.51651,0.12913 0.9235,0.54593 1.42858,0.71429 0.403,0.13433 1.67349,0 2.14285,0 1.19048,0 2.38096,0 3.57143,0 1.19048,0 2.38095,0 3.57143,0 0.2381,0 0.47619,0 0.71429,0 0.23809,0 0.50132,0.10648 0.71428,0 1.76529,-0.88265 -0.24655,-0.71429 1.42857,-0.71429 0.49682,0 3.31312,0.12916 3.57143,0 0.30117,-0.15058 0.41312,-0.5637 0.71429,-0.71428 0.57143,-0.28572 1.57143,0.28571 2.14285,0 0.30117,-0.15059 0.41312,-0.5637 0.71429,-0.71429 0.21296,-0.10648 0.54593,0.16836 0.71429,0 0.57731,-0.57731 -1.73789,-2.45217 -2.14286,-2.85714"
       id="path3101"
       inkscape:connector-curvature="0" />
    <path
       style="fill:none;stroke:#000000;stroke-width:3;stroke-linecap:butt;stroke-linejoin:miter;stroke-miterlimit:4;stroke-opacity:1;stroke-dasharray:none"
       d="m 322.47185,208.13147 c 0.76458,0.56783 2.8616,0.93891 2.29377,1.70351 -0.56783,0.76458 -3.05836,-2.27134 -2.29377,-1.70351 1.14688,0.85175 2.29377,1.70351 3.44065,2.55526 0.13907,0.10329 1.68816,1.28238 1.72032,1.27761 0.23554,-0.0348 0.19034,-0.53866 0.42587,-0.57344 0.0402,-0.006 2.08319,1.54711 2.29377,1.70351 2.48492,1.84545 4.96982,3.6909 7.45474,5.53637 0.40648,0.30183 3.34741,2.37104 3.44064,2.55525 0.152,0.30046 -0.004,0.69886 0.14757,0.99931 0.21889,0.43271 3.22173,2.12256 3.44065,2.55526 0.152,0.30045 -0.004,0.69885 0.14755,0.99931 0.10969,0.21689 1.46208,1.08583 1.72033,1.27763 1.52917,1.13567 3.05835,2.27133 4.58752,3.40699 1.72033,1.27764 3.44066,2.55526 5.16098,3.83288 0.19116,0.14195 0.38232,0.28389 0.57344,0.42588 0.19116,0.14194 0.3379,0.46065 0.57344,0.42587 0.23554,-0.0348 0.19033,-0.53866 0.42588,-0.57344 0.23554,-0.0348 0.38232,0.28389 0.57344,0.42587 1.33803,0.99371 2.67606,1.98742 4.01408,2.98113 0.19116,0.14194 0.38232,0.28389 0.57345,0.42587 0.19115,0.14194 0.3379,0.46066 0.57343,0.42587 0.23554,-0.0348 0.19035,-0.53865 0.42588,-0.57344 0.23554,-0.0348 0.38233,0.2839 0.57345,0.42587 0.19116,0.14195 0.38232,0.2839 0.57344,0.42588 6.1167,4.54267 12.2334,9.08533 18.35011,13.628 0.27038,0.2008 2.8219,2.13609 2.86721,2.12938 0.23553,-0.0348 0.19033,-0.53866 0.42587,-0.57344 0.20429,-0.0302 1.40854,1.22245 1.72032,1.27762 0.33157,0.0587 0.66775,-0.20624 0.99931,-0.14757 0.23447,0.0415 0.339,0.38439 0.57345,0.42588 0.33157,0.0587 0.66775,-0.20625 0.99932,-0.14756 0.23445,0.0415 0.33898,0.38438 0.57343,0.42587 0.33157,0.0587 0.66774,-0.20624 0.99932,-0.14758 0.23446,0.0415 0.3379,0.46066 0.57344,0.42589 0.23555,-0.0348 0.19034,-0.53866 0.42588,-0.57344 0.23554,-0.0348 0.33899,0.38438 0.57343,0.42588 0.33157,0.0587 0.66775,-0.20625 0.99933,-0.14758 0.23445,0.0415 0.3379,0.46066 0.57343,0.42588 0.23554,-0.0348 0.19034,-0.53866 0.42589,-0.57344 0.23553,-0.0348 0.33898,0.38438 0.57343,0.42587 3.27273,0.57913 -0.64242,-0.41569 1.42519,-0.72101 0.23555,-0.0348 0.33899,0.38439 0.57344,0.42587 3.27272,0.57914 -0.64242,-0.41569 1.4252,-0.721 0.23554,-0.0348 0.3379,0.46066 0.57343,0.42588 0.49966,-0.0738 0.77797,-1.64653 1.27763,-1.72033 0.23553,-0.0348 0.3379,0.46066 0.57344,0.42588 0.47109,-0.0696 0.42684,-0.93192 0.85175,-1.14688 3.31432,-0.48941 -0.67184,0.33989 1.4252,-0.721 0.30045,-0.15201 0.69885,0.004 0.99931,-0.14757 0.4249,-0.21497 0.38066,-1.07732 0.85175,-1.14689 0.23554,-0.0348 0.3379,0.46066 0.57344,0.42587 0.49966,-0.0738 0.77796,-1.64654 1.27762,-1.72031 0.23555,-0.0348 0.3379,0.46065 0.57344,0.42587 0.23554,-0.0348 0.28389,-0.38232 0.42588,-0.57345 0.70979,-0.95572 1.41958,-1.91146 2.12938,-2.8672 0.85174,-1.14688 1.70349,-2.29376 2.55524,-3.44064 0.14195,-0.19117 0.28389,-0.38232 0.42588,-0.57345 0.14193,-0.19115 0.21342,-0.46596 0.42587,-0.57344 0.30046,-0.15199 0.69886,0.004 0.99932,-0.14756 0.25767,-0.13039 1.83316,-2.46836 2.12938,-2.86721 1.70349,-2.29377 3.40699,-4.58753 5.11049,-6.88129 1.7035,-2.29376 3.407,-4.58753 5.11049,-6.88129 0.2962,-0.39887 2.07906,-2.58283 2.12939,-2.8672 0.0587,-0.33157 -0.20624,-0.66775 -0.14757,-0.99932 0.0415,-0.23446 0.28389,-0.38232 0.42587,-0.57344 0.14195,-0.19117 0.28389,-0.38232 0.42588,-0.57345 0.7098,-0.95574 1.41957,-1.91146 2.12937,-2.8672 2.27134,-3.05835 4.54267,-6.11671 6.814,-9.17506"
       id="path3105"
       inkscape:connector-curvature="0" />
  </g>
</svg>
