<?xml version="1.0" encoding="UTF-8" standalone="no"?>
<!-- Created with Inkscape (http://www.inkscape.org/) -->

<svg
   xmlns:dc="http://purl.org/dc/elements/1.1/"
   xmlns:cc="http://creativecommons.org/ns#"
   xmlns:rdf="http://www.w3.org/1999/02/22-rdf-syntax-ns#"
   xmlns:svg="http://www.w3.org/2000/svg"
   xmlns="http://www.w3.org/2000/svg"
   xmlns:sodipodi="http://sodipodi.sourceforge.net/DTD/sodipodi-0.dtd"
   xmlns:inkscape="http://www.inkscape.org/namespaces/inkscape"
   width="744.09448819"
   height="1052.3622047"
   id="svg2"
   version="1.1"
   inkscape:version="0.48.5 r10040"
   sodipodi:docname="New document 1">
  <defs
     id="defs4" />
  <sodipodi:namedview
     id="base"
     pagecolor="#ffffff"
     bordercolor="#666666"
     borderopacity="1.0"
     inkscape:pageopacity="0.0"
     inkscape:pageshadow="2"
     inkscape:zoom="1.4"
     inkscape:cx="195.71429"
     inkscape:cy="834.28571"
     inkscape:document-units="px"
     inkscape:current-layer="layer1"
     showgrid="false"
     inkscape:window-width="1394"
     inkscape:window-height="840"
     inkscape:window-x="0"
     inkscape:window-y="0"
     inkscape:window-maximized="0" />
  <metadata
     id="metadata7">
    <rdf:RDF>
      <cc:Work
         rdf:about="">
        <dc:format>image/svg+xml</dc:format>
        <dc:type
           rdf:resource="http://purl.org/dc/dcmitype/StillImage" />
        <dc:title></dc:title>
      </cc:Work>
    </rdf:RDF>
  </metadata>
  <g
     inkscape:label="Layer 1"
     inkscape:groupmode="layer"
     id="layer1">
    <path
       style="fill:none;stroke:#000000;stroke-width:5;stroke-linecap:butt;stroke-linejoin:miter;stroke-opacity:1;stroke-miterlimit:4;stroke-dasharray:none"
       d="m 167.85714,263.79075 c 0.95238,-0.23809 1.89452,-0.52176 2.85715,-0.71428 0.46694,-0.0934 0.95238,0 1.42857,0 1.19047,0 2.38095,0 3.57143,0 0.47619,0 0.95238,0 1.42857,0 0.23809,0 0.48841,0.0753 0.71428,0 0.50508,-0.16836 0.91207,-0.58516 1.42857,-0.71429 0.46198,-0.11549 0.95239,0 1.42858,0 0.47619,0 0.95238,0 1.42857,0 2.14285,0 4.28571,0 6.42857,0 1.66667,0 3.33333,0 5,0 0.71428,0 1.46522,-0.22588 2.14286,0 0.31943,0.10648 0.43412,0.52751 0.71428,0.71429 0.44298,0.29532 0.9235,0.54592 1.42857,0.71428 0.67763,0.22588 1.4499,-0.17324 2.14286,0 0.5165,0.12913 0.9235,0.54593 1.42857,0.71429 0.22588,0.0753 0.47619,0 0.71429,0 0.47619,0 0.95238,0 1.42857,0 0.95238,0 1.90476,0 2.85714,0 3.33333,0 6.66667,0 10,0 3.61968,0 -0.85183,-0.21296 2.85714,0.71428 0.35628,0.0891 3.89986,0.0772 4.28572,0 1.43439,0.16392 2.32753,-1.11759 3.57143,-1.42857 0.46197,-0.11549 0.96163,0.0934 1.42857,0 0.7383,-0.14766 1.40455,-0.56662 2.14286,-0.71428 0.46694,-0.0934 0.96659,0.11549 1.42857,0 0.5165,-0.12913 0.90651,-0.60988 1.42857,-0.71429 1.16736,-0.23347 2.38095,0 3.57143,0 2.85714,0 5.71428,0 8.57143,0 0.95238,0 1.90476,0 2.85714,0 0.47619,0 0.96163,0.0934 1.42857,0 0.7383,-0.14766 1.40456,-0.56662 2.14286,-0.71428 0.46694,-0.0934 0.9666,0.11549 1.42857,0 0.5165,-0.12913 0.91207,-0.58516 1.42857,-0.71429 0.46197,-0.11549 0.95238,0 1.42857,0 0.47619,0 0.95238,0 1.42857,0 2.38096,0 4.76191,0 7.14286,0 0.82976,0 2.9239,0.16188 3.57143,0 3.70898,-0.92724 -0.76253,-0.71429 2.85714,-0.71429 1.66667,0 3.33334,0 5,0 0.2381,0 0.47619,0 0.71429,0 0.23809,0 0.50132,0.10648 0.71428,0 0.30117,-0.15058 0.39485,-0.6078 0.71429,-0.71428 0.97528,-0.32509 3.31043,0.32509 4.28571,0 0.31944,-0.10648 0.41312,-0.5637 0.71429,-0.71429 0.45424,-0.22712 2.97984,0.1972 3.57143,0 0.31944,-0.10648 0.39484,-0.6078 0.71428,-0.71428 0.64286,-0.21429 1.5,0.21428 2.14286,0 0.50508,-0.16836 0.9235,-0.54593 1.42857,-0.71429 0.45176,-0.15058 0.95238,0 1.42857,0 1.19048,0 2.38096,0 3.57143,0 3.33334,0 6.66667,0 10,0 4.04762,0 8.09524,0 12.14286,0 1.42857,0 2.85714,0 4.28571,0 0.47619,0 0.96163,-0.0934 1.42857,0 0.73831,0.14766 1.40018,0.59051 2.14286,0.71429 1.85328,0.30888 3.86101,-0.30888 5.71429,0 0.74268,0.12378 1.40018,0.5905 2.14285,0.71428 0.70457,0.11743 1.42858,0 2.14286,0 1.66667,0 3.33334,0 5,0 3.57143,0 7.14286,0 10.71429,0 1.66666,0 3.33333,0 5,0 0.47619,0 0.9666,-0.11549 1.42857,0 0.5165,0.12913 0.90651,0.60988 1.42857,0.71429 0.75428,0.15085 3.96701,0 5,0 3.57143,0 7.14286,0 10.71429,0 0.95238,0 1.90476,0 2.85714,0 0.47619,0 0.96163,-0.0934 1.42857,0 0.7383,0.14766 1.40456,0.56662 2.14286,0.71428 0.93388,0.18678 1.90476,0 2.85714,0 2.38095,0 4.76191,0 7.14286,0 0.71428,0 1.42857,0 2.14285,0 0.4762,0 0.96163,-0.0934 1.42858,0 0.7383,0.14767 1.40455,0.56663 2.14285,0.71429 0.46695,0.0934 0.95238,0 1.42857,0 1.42858,0 2.85715,0 4.28572,0 0.47619,0 0.9666,-0.11549 1.42857,0 0.5165,0.12913 0.90651,0.60987 1.42857,0.71429 0.70042,0.14008 1.42857,0 2.14286,0 2.14286,0 4.28571,0 6.42857,0 1.42857,0 2.85714,0 4.28571,0 0.71429,0 1.44245,0.14008 2.14286,0 0.52206,-0.10442 0.90651,-0.60988 1.42857,-0.71429 0.70042,-0.14008 1.43829,0.11743 2.14286,0 0.74268,-0.12378 1.40456,-0.56662 2.14286,-0.71429 0.46694,-0.0934 0.9666,0.1155 1.42857,0 0.5165,-0.12912 0.91207,-0.58516 1.42857,-0.71428 0.46197,-0.11549 0.9666,0.11549 1.42857,0 0.5165,-0.12913 0.91207,-0.58516 1.42857,-0.71429 0.46198,-0.11549 0.9666,0.1155 1.42857,0 0.51651,-0.12912 0.91208,-0.58516 1.42858,-0.71428 0.46197,-0.1155 0.96659,0.11549 1.42857,0 0.5165,-0.12913 0.95238,-0.47619 1.42857,-0.71429 0.95238,-0.47619 1.94409,-0.88074 2.85714,-1.42857 0.73613,-0.44168 1.37502,-1.04465 2.14286,-1.42857 0.67343,-0.33672 1.46942,-0.37757 2.14286,-0.71429 1.53566,-0.76783 2.75004,-2.08931 4.28571,-2.85714 0.67344,-0.33672 1.46942,-0.37757 2.14286,-0.71429 0.76783,-0.38391 1.42857,-0.95238 2.14285,-1.42857 0.71429,-0.47619 1.42858,-0.95238 2.14286,-1.42857 1.42857,-0.95238 2.85714,-1.90476 4.28572,-2.85714 0.71428,-0.47619 1.47251,-0.89229 2.14285,-1.42857 0.52587,-0.42069 0.90271,-1.00788 1.42857,-1.42857 0.67035,-0.53628 1.47251,-0.8923 2.14286,-1.42858 0.52587,-0.42069 0.95238,-0.95238 1.42857,-1.42857 0.47619,-0.47619 1.00788,-0.9027 1.42857,-1.42857 0.53628,-0.67035 0.8923,-1.47251 1.42858,-2.14286 4.37395,-4.37395 -0.90351,1.20468 2.14285,-2.85714 0.40406,-0.53875 1.02451,-0.88982 1.42857,-1.42857 0.31944,-0.42592 0.4762,-0.95238 0.71429,-1.42857 0.47619,-0.95238 1.03312,-1.86851 1.42857,-2.85714 0.27963,-0.69908 0.43466,-1.44379 0.71429,-2.14286 0.72385,-1.80963 2.13329,-3.19038 2.85714,-5 1.76529,-4.41322 -0.24656,-0.22118 1.42857,-3.57143 0.2381,-0.47619 0.39485,-1.00265 0.71429,-1.42857 0.40406,-0.53875 1.02451,-0.88982 1.42857,-1.42857 0.31944,-0.42592 0.47619,-0.95238 0.71428,-1.42857 0.4762,-0.95238 0.88074,-1.94409 1.42858,-2.85715 0.44167,-0.73612 0.98689,-1.40673 1.42857,-2.14285 0.27391,-0.45653 0.44037,-0.97205 0.71428,-1.42858 0.44168,-0.73612 1.04466,-1.37502 1.42857,-2.14285 0.33672,-0.67344 0.37757,-1.46942 0.71429,-2.14286 0.38392,-0.76783 1.04465,-1.37502 1.42857,-2.14286 0.67344,-1.34687 0.86932,-2.88757 1.42857,-4.28571 0.19773,-0.49432 0.47619,-0.95238 0.71429,-1.42857 0.23809,-0.47619 0.41896,-0.98559 0.71428,-1.42857 0.18678,-0.28017 0.56371,-0.41312 0.71429,-0.71429 0.10648,-0.21296 -0.0753,-0.48841 0,-0.71429 0.16836,-0.50507 0.54593,-0.92349 0.71429,-1.42857 0.0753,-0.22587 -0.10648,-0.50132 0,-0.71428 0.31655,-0.6331 1.70937,-1.49263 2.14285,-2.14286 0.87703,-1.31554 1.32896,-2.92921 2.14286,-4.28571 0.44168,-0.73613 0.9869,-1.40673 1.42857,-2.14286 0.27392,-0.45653 0.39485,-1.00265 0.71429,-1.42857 0.40406,-0.53875 1.00788,-0.90271 1.42857,-1.42857 1.43563,-1.79454 2.1358,-3.91976 3.57143,-5.71429 0.42069,-0.52586 1.08209,-0.85111 1.42857,-1.42857 0.38737,-0.64563 0.32691,-1.49723 0.71428,-2.14286 0.34648,-0.57746 1.0821,-0.8511 1.42858,-1.42857 0.38737,-0.64563 0.32691,-1.49723 0.71428,-2.14286 0.34648,-0.57746 1.02451,-0.88982 1.42857,-1.42857 1.4455,-1.92732 -0.012,-1.17053 1.42857,-3.57143 0.34648,-0.57746 1.02452,-0.88982 1.42858,-1.42857 0.71791,-0.95721 1.01699,-2.54247 1.42857,-3.57143 0.19773,-0.49432 0.47619,-0.95238 0.71428,-1.42857 0.2381,-0.47619 0.39485,-1.00265 0.71429,-1.42857 0.40406,-0.53875 1.02451,-0.88982 1.42857,-1.42857 0.63888,-0.85184 0.7897,-2.00531 1.42857,-2.85714 0.40406,-0.53875 0.95238,-0.95239 1.42857,-1.42858 0.95238,-0.95238 1.80542,-2.01576 2.85715,-2.85714 0.67034,-0.53628 1.53583,-0.82154 2.14285,-1.42857 0.60703,-0.60703 0.8923,-1.47251 1.42857,-2.14286 2.82741,-3.53426 -0.14112,0.85541 3.57143,-2.85714 0.60703,-0.60703 0.8923,-1.47251 1.42857,-2.14286 0.4207,-0.52586 1.00788,-0.9027 1.42858,-1.42857 0.53627,-0.67035 0.89229,-1.47251 1.42857,-2.14286 0.42069,-0.52586 1.00788,-0.9027 1.42857,-1.42857 0.53628,-0.67035 0.95238,-1.42857 1.42857,-2.14285 0.47619,-0.71429 0.9869,-1.40673 1.42857,-2.14286 0.27392,-0.45653 0.44037,-0.97205 0.71429,-1.42857 0.44167,-0.73613 0.98689,-1.40673 1.42857,-2.14286 0.27392,-0.45653 0.44037,-0.97204 0.71428,-1.42857 0.44168,-0.73613 0.8923,-1.47251 1.42858,-2.14286 0.42069,-0.52586 1.08209,-0.8511 1.42857,-1.42857 0.38737,-0.64563 0.32691,-1.49723 0.71428,-2.14286 0.34648,-0.57746 1.0821,-0.8511 1.42857,-1.42857 0.38738,-0.64562 0.32691,-1.49723 0.71429,-2.14286 0.34648,-0.57746 1.02451,-0.88982 1.42857,-1.42857 0.31944,-0.42591 0.39485,-1.00265 0.71429,-1.42857 0.40406,-0.53875 1.02451,-0.88982 1.42857,-1.42857 0.63888,-0.85184 0.78969,-2.00531 1.42857,-2.85714 0.40406,-0.53875 1.02451,-0.88983 1.42857,-1.42857 0.31944,-0.42592 0.47619,-0.95239 0.71429,-1.42858 0.23809,-0.476186 0.47619,-0.952376 0.71428,-1.428567 1.19048,-2.380952 2.38096,-4.761905 3.57143,-7.142857 0.2381,-0.476191 0.47619,-0.952381 0.71429,-1.428572 0.23809,-0.47619 0.39485,-1.002653 0.71428,-1.428571 0.40406,-0.538748 1.02451,-0.889823 1.42857,-1.428571 0.31944,-0.425918 0.4762,-0.952381 0.71429,-1.428572 0.2381,-0.47619 0.47619,-0.952381 0.71429,-1.428571 2.58949,-5.178987 -0.75293,1.129385 1.42857,-2.142857 0.59064,-0.885963 0.83793,-1.971181 1.42857,-2.857143 0.18678,-0.280166 0.47619,-0.476191 0.71428,-0.714286 0.2381,-0.47619 0.41897,-0.98559 0.71429,-1.428571 0.18678,-0.280166 0.5637,-0.413117 0.71429,-0.714286 0.10648,-0.212959 -0.10648,-0.501327 0,-0.714286 0.30117,-0.602338 1.21561,-0.789695 1.42857,-1.428571 0.15058,-0.451754 -0.15059,-0.976818 0,-1.428572 0.10648,-0.319438 0.52751,-0.43412 0.71428,-0.714285 0.87912,-1.318682 1.26374,-2.967033 2.14286,-4.285715 0.18678,-0.280166 0.52751,-0.43412 0.71429,-0.714285 2.07978,-3.119675 -0.31658,0.235441 0.71428,-2.857143 0.10648,-0.319439 0.52751,-0.43412 0.71429,-0.714286 2.40562,-3.608433 0.006,-0.01655 0.71428,-2.142857 0.86317,-2.589493 0.33891,-0.508355 1.42857,-2.142857 0.79298,-1.189456 1.31532,-3.182328 2.14286,-4.285715 0.40406,-0.538748 1.02451,-0.889823 1.42857,-1.428571 0.63888,-0.851835 0.67565,-2.10422 1.42857,-2.857143 0.37647,-0.376461 1.05211,-0.337824 1.42858,-0.714286 0.37646,-0.376461 0.41896,-0.98559 0.71428,-1.428571 0.18678,-0.280166 0.52751,-0.43412 0.71429,-0.714286 0.29532,-0.442981 0.41896,-0.98559 0.71428,-1.428571 0.18678,-0.280166 0.5637,-0.413117 0.71429,-0.714286 1.051,-2.102006 -1.6547,0.940416 0.71428,-1.428571 2.36899,-2.368988 -0.33671,0.673435 0.71429,-1.428572 0.15059,-0.301169 0.5637,-0.413116 0.71429,-0.714285 0.10869,-0.217382 0,-1.821174 0,-2.142858 0,-0.238095 0.16836,-0.545927 0,-0.714285 -0.16836,-0.168359 -0.47619,0 -0.71429,0"
       id="path2987"
       inkscape:connector-curvature="0" />
    <path
       style="fill:none;stroke:#000000;stroke-width:5;stroke-linecap:butt;stroke-linejoin:miter;stroke-opacity:1;stroke-miterlimit:4;stroke-dasharray:none"
       d="m 217.14286,258.79075 c -0.2381,-0.95238 -1.66667,-2.61904 -0.71429,-2.85714 0.95238,-0.23809 0.71429,3.83884 0.71429,2.85714 0,-1.21405 -0.71429,-2.35737 -0.71429,-3.57143 0,-0.47619 1.00266,0.21296 1.42857,0 0.30117,-0.15058 0.41312,-0.5637 0.71429,-0.71428 0.21296,-0.10648 0.47619,0 0.71428,0 0.2381,0 0.47619,0 0.71429,0 2.38095,0 4.7619,0 7.14286,0 0.37351,0 2.66932,-0.0939 2.85714,0 0.30117,0.15058 0.41312,0.5637 0.71429,0.71428 0.21295,0.10648 0.50132,-0.10647 0.71428,0 2.10201,1.05101 -1.10877,0.71429 2.14286,0.71429 0.77993,0 3.10949,0.15398 3.57143,0 0.50507,-0.16836 0.92349,-0.54593 1.42857,-0.71429 0.41377,-0.13792 2.23815,0 2.85714,0 0.2381,0 0.47619,0 0.71429,0 0.23809,0 0.50132,-0.10647 0.71428,0 0.30117,0.15059 0.41312,0.56371 0.71429,0.71429 0.21296,0.10648 0.47619,0 0.71428,0 0.4762,0 0.97682,-0.15058 1.42858,0 0.31943,0.10648 0.41311,0.5637 0.71428,0.71429 0.21296,0.10648 0.47619,0 0.71429,0 0.23809,0 0.47619,0 0.71428,0 1.66667,0 3.33334,0 5,0 0.58479,0 3.10863,0.15426 3.57143,0 0.50508,-0.16836 0.9235,-0.54593 1.42857,-0.71429 0.68444,-0.22815 2.90971,0.22057 3.57143,0 0.31944,-0.10648 0.41312,-0.5637 0.71429,-0.71429 0.21296,-0.10647 0.47619,0 0.71428,0 0.2381,0 0.47619,0 0.71429,0 1.42857,0 2.85714,0 4.28571,0 1.19048,0 2.38096,0 3.57143,0 0.71429,0 1.46523,0.22588 2.14286,0 0.31944,-0.10647 0.39485,-0.6078 0.71428,-0.71428 0.90351,-0.30117 1.95364,0.30117 2.85715,0 0.31944,-0.10648 0.39484,-0.60781 0.71428,-0.71429 0.90351,-0.30117 1.95364,0.30117 2.85715,0 0.31943,-0.10648 0.39484,-0.6078 0.71428,-0.71428 0.32698,-0.10899 3.17275,0 3.57143,0 2.14286,0 4.28571,0 6.42857,0 2.38095,0 4.76191,0 7.14286,0 0.47619,0 0.95238,0 1.42857,0 0.47619,0 0.97682,0.15058 1.42857,0 0.31944,-0.10648 0.39485,-0.60781 0.71429,-0.71429 0.45175,-0.15058 0.95238,0 1.42857,0 0.47619,0 0.95238,0 1.42857,0 2.14286,0 4.28571,0 6.42857,0 0.76631,0 4.52786,-0.15738 5,0 0.50508,0.16836 0.9235,0.54593 1.42857,0.71429 0.75901,0.253 2.09814,-0.25301 2.85715,0 0.50507,0.16836 0.91207,0.58516 1.42857,0.71428 0.92394,0.23099 1.95363,-0.30117 2.85714,0 0.31944,0.10648 0.39485,0.60781 0.71429,0.71429 0.39377,0.13126 3.67953,0 4.28571,0 0.2381,0 0.48841,-0.0753 0.71429,0 0.50507,0.16836 0.92349,0.54593 1.42857,0.71428 0.4627,0.15424 4.93527,0 5.71428,0 1.42857,0 2.85715,0 4.28572,0 0.47619,0 0.9666,-0.11549 1.42857,0 0.5165,0.12913 0.91207,0.58517 1.42857,0.71429 0.46197,0.11549 0.95238,0 1.42857,0 0.71429,0 1.42857,0 2.14286,0 0.47619,0 0.95238,0 1.42857,0 0.47619,0 0.9666,0.11549 1.42857,0 0.5165,-0.12912 0.91207,-0.58516 1.42857,-0.71429 0.46198,-0.11549 0.9666,0.1155 1.42857,0 0.51651,-0.12912 0.91207,-0.58516 1.42858,-0.71428 0.34799,-0.087 2.47944,0.18885 2.85714,0 0.30117,-0.15059 0.41312,-0.5637 0.71428,-0.71429 0.21739,-0.10869 1.82118,0 2.14286,0 1.42857,0 2.85714,0 4.28572,0 2.38095,0 4.7619,0 7.14285,0 0.37352,0 2.66933,0.0939 2.85715,0 0.30117,-0.15058 0.41311,-0.5637 0.71428,-0.71428 0.46402,-0.23201 3.11835,0.22654 3.57143,0 0.30117,-0.15059 0.41312,-0.5637 0.71429,-0.71429 0.57142,-0.28571 1.57142,0.28572 2.14285,0 0.30117,-0.15058 0.41312,-0.5637 0.71429,-0.71428 0.21296,-0.10648 0.47619,0 0.71428,0 0.2381,0 0.4762,0 0.71429,0 1.19048,0 2.38095,0 3.57143,0 1.90476,0 3.80952,0 5.71428,0 0.37352,0 2.66933,-0.0939 2.85715,0 0.30117,0.15058 0.41311,0.5637 0.71428,0.71428 0.44895,0.22447 2.4082,-0.22447 2.85715,0 0.30117,0.15059 0.41311,0.5637 0.71428,0.71429 0.21296,0.10648 0.47619,0 0.71429,0 0.47619,0 0.95238,0 1.42857,0 1.90476,0 3.80952,0 5.71428,0 0.50629,0 4.10104,0.0923 4.28572,0 0.30117,-0.15059 0.41312,-0.5637 0.71428,-0.71429 0.44895,-0.22447 2.4082,0.22447 2.85715,0 0.30117,-0.15058 0.41311,-0.5637 0.71428,-0.71428 0.28321,-0.14161 1.99683,0.14602 2.14286,0 0.16836,-0.16836 -0.16836,-0.54593 0,-0.71429 0.14603,-0.14603 1.85965,0.1416 2.14286,0 0.30117,-0.15058 0.41311,-0.5637 0.71428,-0.71429 0.42592,-0.21295 1.00266,0.21296 1.42857,0 0.30117,-0.15058 0.41312,-0.5637 0.71429,-0.71428 0.21296,-0.10648 0.50133,0.10648 0.71429,0 0.30117,-0.15059 0.41311,-0.5637 0.71428,-0.71429 0.42592,-0.21296 1.09186,0.33672 1.42857,0 0.16836,-0.16836 -0.16836,-0.54592 0,-0.71428 0.33672,-0.33672 1.09186,0.33671 1.42857,0 0.16836,-0.16836 -0.16835,-0.54593 0,-0.71429 0.16836,-0.16836 0.50133,0.10648 0.71429,0 0.30117,-0.15058 0.41312,-0.5637 0.71429,-0.71428 0.21296,-0.10648 0.50132,0.10648 0.71428,0 2.36899,-2.36899 -0.67343,0.33671 1.42857,-0.71429 0.30117,-0.15058 0.39485,-0.60781 0.71429,-0.71429 0.45175,-0.15058 0.97682,0.15059 1.42857,0 0.63888,-0.21295 0.82623,-1.1274 1.42857,-1.42857 0.21296,-0.10648 0.47619,0 0.71429,0 0.47619,0 0.97682,0.15059 1.42857,0 0.63888,-0.21296 0.82623,-1.1274 1.42857,-1.42857 0.21296,-0.10648 0.50133,0.10648 0.71429,0 0.30117,-0.15058 0.41311,-0.5637 0.71428,-0.71428 0.21296,-0.10648 0.54593,0.16835 0.71429,0 0.16836,-0.16836 -0.16836,-0.54593 0,-0.71429 0.16836,-0.16836 0.54592,0.16836 0.71428,0 0.16836,-0.16836 -0.16836,-0.54593 0,-0.71429 0.16836,-0.16835 0.54593,0.16836 0.71429,0 0.16836,-0.16835 -0.16836,-0.54592 0,-0.71428 0.16836,-0.16836 0.54593,0.16836 0.71428,0 0.16836,-0.16836 -0.16835,-0.54593 0,-0.71429 0.16836,-0.16836 0.54593,0.16836 0.71429,0 0.16836,-0.16836 -0.10648,-0.50132 0,-0.71428 0.35144,-0.70288 2.5057,-2.15427 2.85714,-2.85715 0.10648,-0.21295 -0.16836,-0.54592 0,-0.71428 0.16836,-0.16836 0.50133,0.10648 0.71429,0 0.30117,-0.15059 0.47619,-0.47619 0.71428,-0.71429 0.2381,-0.23809 0.56371,-0.41311 0.71429,-0.71428 0.10648,-0.21296 -0.16836,-0.54593 0,-0.71429 0.16836,-0.16836 0.50133,0.10648 0.71429,0 0.38148,-0.19074 1.76681,-1.76681 2.14285,-2.14286 0.47619,-0.47619 0.95238,-0.95238 1.42857,-1.42857 0.2381,-0.23809 0.52751,-0.43412 0.71429,-0.71428 0.29532,-0.44298 0.33782,-1.05211 0.71429,-1.42857 0.37646,-0.37647 1.05211,-0.33783 1.42857,-0.71429 0.0458,-0.0458 1.33987,-2.72409 1.42857,-2.85714 0.4109,-0.61636 1.58494,-1.58494 2.14286,-2.14286 0.23809,-0.23809 0.5637,-0.41312 0.71428,-0.71429 0.10648,-0.21295 -0.10648,-0.50132 0,-0.71428 0.30117,-0.60234 1.05502,-0.86824 1.42857,-1.42857 0.29532,-0.44298 0.41897,-0.98559 0.71429,-1.42857 0.7007,-1.05106 2.15644,-1.80609 2.85714,-2.85715 0.29532,-0.44298 0.41897,-0.98559 0.71429,-1.42857 0.18677,-0.28016 0.47619,-0.47619 0.71428,-0.71428 0.2381,-0.47619 0.41897,-0.98559 0.71429,-1.42858 0.18678,-0.28016 0.52751,-0.43412 0.71428,-0.71428 0.29533,-0.44298 0.41897,-0.98559 0.71429,-1.42857 0.18678,-0.28017 0.52751,-0.43412 0.71429,-0.71429 1.35316,0.0813 0.47619,-1.66666 0.71428,-2.14286 0.15059,-0.30116 0.60781,-0.39484 0.71429,-0.71428 0.15058,-0.45176 -0.15059,-0.97682 0,-1.42857 0.10648,-0.31944 0.5637,-0.41312 0.71428,-0.71429 0.10648,-0.21296 0,-0.47619 0,-0.71428 0.2381,-0.47619 0.41897,-0.98559 0.71429,-1.42858 0.18678,-0.28016 0.60781,-0.39484 0.71428,-0.71428 0.15059,-0.45176 -0.15058,-0.97682 0,-1.42857 0.10648,-0.31944 0.52751,-0.43412 0.71429,-0.71429 0.29532,-0.44298 0.41897,-0.98559 0.71429,-1.42857 0.18677,-0.28017 0.5275,-0.43412 0.71428,-0.71429 2.40562,-3.60843 0.006,-0.0165 0.71429,-2.14285 0.16836,-0.50508 0.47619,-0.95238 0.71428,-1.42857 0.2381,-0.47619 0.41897,-0.98559 0.71429,-1.42858 0.18678,-0.28016 0.47619,-0.47619 0.71428,-0.71428 0.2381,-0.47619 0.41897,-0.98559 0.71429,-1.42857 0.18678,-0.28017 0.52751,-0.43412 0.71429,-0.71429 0.29532,-0.44298 0.39484,-1.00265 0.71428,-1.42857 0.60609,-0.80812 1.58253,-1.30236 2.14286,-2.14286 0.29532,-0.44298 0.39485,-1.00265 0.71428,-1.42857 1,-1.33333 2.57143,-2.23809 3.57143,-3.57143 0.63888,-0.85183 0.7897,-2.0053 1.42857,-2.85714 0.6061,-0.80812 1.58253,-1.30236 2.14286,-2.14286 0.59064,-0.88596 0.95238,-1.90476 1.42857,-2.85714 0.71429,-1.42857 1.42857,-2.85714 2.14286,-4.28571 0.47619,-0.95238 0.83793,-1.97118 1.42857,-2.85715 0.18678,-0.28016 0.52751,-0.43412 0.71429,-0.71428 0.29532,-0.44298 0.41896,-0.98559 0.71428,-1.42857 0.58783,-0.88175 0.84074,-0.54683 1.42857,-1.42858 0.29533,-0.44298 0.33783,-1.05211 0.71429,-1.42857 0.37646,-0.37646 0.98559,-0.41896 1.42857,-0.71428 0.28017,-0.18678 0.47619,-0.47619 0.71429,-0.71429 0.23809,-0.23809 0.52751,-0.43412 0.71428,-0.71428 0.29532,-0.44299 0.41897,-0.98559 0.71429,-1.42858 0.56033,-0.84049 1.53676,-1.33473 2.14286,-2.14285 0.31943,-0.42592 0.41896,-0.98559 0.71428,-1.42857 0.18678,-0.28017 0.52751,-0.43412 0.71429,-0.71429 0.29532,-0.44298 0.41896,-0.98559 0.71428,-1.42857 0.18678,-0.28017 0.52751,-0.43412 0.71429,-0.71429 0.29532,-0.44298 0.41896,-0.98559 0.71428,-1.42857 0.18678,-0.28016 0.56371,-0.41311 0.71429,-0.71428 0.10648,-0.21296 -0.16836,-0.54593 0,-0.71429 0.16836,-0.16836 0.54593,0.16836 0.71429,0 0.33671,-0.33672 -0.21296,-1.00265 0,-1.42857 0.15058,-0.30117 0.47619,-0.47619 0.71428,-0.71429 0,-0.47619 -0.15058,-0.97681 0,-1.42857 0.10648,-0.31944 0.52751,-0.43412 0.71429,-0.71428 0.29532,-0.44299 0.47619,-0.95239 0.71428,-1.42858 0.94815,-1.89629 0.48043,-0.96084 1.42857,-2.85714 0.2381,-0.47619 0.39485,-1.00265 0.71429,-1.42857 0.60609,-0.80812 1.58253,-1.30236 2.14286,-2.14286 0.29532,-0.44298 0.47619,-0.95238 0.71428,-1.42857 0.95238,-1.90476 1.90477,-3.80952 2.85715,-5.71428 0.47619,-0.95239 0.83793,-1.97118 1.42857,-2.85715 0.18677,-0.28016 0.52751,-0.43412 0.71428,-0.71428 2.18804,-3.28205 -0.75946,0.42491 1.42857,-2.85715 0.18678,-0.28016 0.52751,-0.43412 0.71429,-0.71428 1.57369,-0.35971 0.37757,-1.46942 0.71429,-2.14286 1.6345,-3.269 -0.29606,3.03101 1.42857,-2.14286 0.70877,-2.1263 -1.69134,1.46558 0.71428,-2.14285 0.18678,-0.28017 0.52751,-0.43412 0.71429,-0.71429 2.91738,-4.37607 -1.48881,1.51893 1.42857,-2.85714 0.37356,-0.56033 1.05502,-0.86824 1.42857,-1.42857 0.29532,-0.44298 0.41897,-0.98559 0.71429,-1.42857 0.18677,-0.28017 0.6078,-0.39485 0.71428,-0.71429 0.15059,-0.45175 -0.15058,-0.97682 0,-1.42857 0.12887,-0.3866 1.83002,-1.67359 2.14286,-2.14286 0.29532,-0.44298 0.41897,-0.98559 0.71429,-1.42857 0.18677,-0.28017 0.5275,-0.43412 0.71428,-0.71429 0.29532,-0.442977 0.41897,-0.985586 0.71429,-1.428567 1.09398,-1.640976 0.408,0.306287 2.14285,-1.428571 1.80422,-1.804217 0.27448,-0.823419 0.71429,-2.142858 0.43244,-1.297305 0.61132,-1.325605 1.42857,-2.142857 0.2381,-0.238095 0.60781,-0.394847 0.71429,-0.714285 0.15058,-0.451754 -0.15059,-0.976818 0,-1.428572 0.10648,-0.319438 0.52751,-0.43412 0.71428,-0.714286 0.29532,-0.442981 0.41897,-0.98559 0.71429,-1.428571 0.18678,-0.280166 0.52751,-0.43412 0.71428,-0.714286 0.29533,-0.442981 0.41897,-0.98559 0.71429,-1.428571 0.56033,-0.840498 1.53677,-1.334735 2.14286,-2.142857 0.63887,-0.851836 0.83793,-1.971181 1.42857,-2.857143 0.56033,-0.840498 1.53676,-1.334735 2.14286,-2.142857 0.31943,-0.425918 0.41896,-0.985591 0.71428,-1.428572 1.08967,-1.634502 0.56541,0.446636 1.42857,-2.142857 0.0753,-0.225877 -0.10648,-0.501327 0,-0.714286 0.15059,-0.301169 0.5637,-0.413116 0.71429,-0.714285 0.10648,-0.212959 -0.10648,-0.501327 0,-0.714286 0.38114,-0.762283 1.04743,-0.666289 1.42857,-1.428571 0.10648,-0.212959 -0.10648,-0.501327 0,-0.714286 0.30117,-0.602339 1.05502,-0.86824 1.42857,-1.428572 0.29532,-0.442981 0.41897,-0.98559 0.71429,-1.428571 0.56033,-0.840498 1.53676,-1.334735 2.14285,-2.142857 0.31944,-0.425918 0.33783,-1.05211 0.71429,-1.428572 0.37646,-0.376461 1.05211,-0.337824 1.42857,-0.714285 0.37646,-0.376462 0.41897,-0.985591 0.71429,-1.428572 0.37355,-0.560332 1.1274,-0.826233 1.42857,-1.428571 0.10648,-0.212959 -0.10648,-0.501327 0,-0.714286 0.15058,-0.301169 0.5637,-0.413116 0.71428,-0.714286 0.10648,-0.212958 -0.10647,-0.501326 0,-0.714285 0.15059,-0.30117 0.56371,-0.413117 0.71429,-0.714286 0.10648,-0.212959 -0.16836,-0.545927 0,-0.714286 0.16836,-0.168358 0.54593,0.168359 0.71429,0 0.16836,-0.168358 -0.10648,-0.501327 0,-0.714285 0.30117,-0.602339 1.1274,-0.826233 1.42857,-1.428572 0.10648,-0.212959 -0.10648,-0.501327 0,-0.714286 0.30117,-0.602338 1.1274,-0.826232 1.42857,-1.428571 0.10648,-0.212959 -0.10648,-0.501327 0,-0.714286 0.15058,-0.301169 0.47619,-0.47619 0.71428,-0.714285 0.2381,-0.238096 0.4762,-0.476191 0.71429,-0.714286 2.36899,-2.368988 -0.33672,0.673435 0.71429,-1.428572 0.12773,-0.255469 2.56009,-2.659112 2.85714,-2.857142 0.44298,-0.295321 1.05211,-0.337825 1.42857,-0.714286 1.47788,-1.477883 -2.2584,0.05777 0.71429,-1.428572 0.21296,-0.106479 0.50132,0.10648 0.71428,0 1.57933,-0.789662 0.22166,-0.443316 0.71429,-1.428571 0.16538,-0.330771 2.43704,-2.43704 2.85714,-2.857143 0.47619,-0.47619 0.88982,-1.02451 1.42857,-1.428571 0.42592,-0.319439 1.05211,-0.337824 1.42857,-0.714286 0.37647,-0.376462 0.41897,-0.98559 0.71429,-1.428571 0.18678,-0.280166 0.47619,-0.476191 0.71428,-0.714286 0.2381,-0.238095 0.41312,-0.563701 0.71429,-0.714286 0.98526,-0.492627 0.63891,0.865039 1.42857,-0.714286 0.10648,-0.212958 -0.16836,-0.545927 0,-0.714285 0.16836,-0.168359 0.54593,0.168358 0.71429,0 0.16836,-0.168359 -0.10648,-0.501327 0,-0.714286 0.15058,-0.301169 0.47619,-0.476191 0.71428,-0.714286 0.55792,-0.557919 1.73196,-1.5265 2.14286,-2.142857 0.29532,-0.442981 0.41897,-0.98559 0.71429,-1.428571 0.37355,-0.560332 1.05501,-0.86824 1.42857,-1.428572 0.29532,-0.442981 0.41896,-0.98559 0.71428,-1.428571 0.37356,-0.560332 1.05502,-0.86824 1.42857,-1.428572 0.29533,-0.442981 0.41897,-0.98559 0.71429,-1.428571 0.18678,-0.280166 0.5637,-0.413116 0.71429,-0.714286 1.051,-2.102006 -1.65471,0.940416 0.71428,-1.428571 0.2381,-0.238095 0.47619,-0.476191 0.71429,-0.714286 0.23809,-0.238095 0.5637,-0.413116 0.71428,-0.714286 0.10648,-0.212958 -0.10648,-0.501326 0,-0.714285 0.35144,-0.702878 2.50571,-2.154266 2.85715,-2.857143 0.10648,-0.212959 -0.10648,-0.501327 0,-0.714286 0.15058,-0.301169 0.5637,-0.413116 0.71428,-0.714286 0.10648,-0.212958 -0.16836,-0.545927 0,-0.714285 0.16836,-0.168359 0.54593,0.168358 0.71429,0 0.16836,-0.168359 -0.10648,-0.501327 0,-0.714286 0.15058,-0.301169 0.47619,-0.476191 0.71428,-0.714286 0.71429,-0.714285 1.42857,-1.428571 2.14286,-2.142857 0.2381,-0.238095 0.52751,-0.43412 0.71429,-0.714286 0.29532,-0.4429808 0.54592,-0.9234948 0.71428,-1.4285711 0.0753,-0.2258769 -0.16836,-0.5459269 0,-0.7142857 0.16836,-0.1683587 0.54593,0.1683588 0.71429,0 0.16836,-0.1683587 -0.16836,-0.5459269 0,-0.7142857 0.16836,-0.1683587 0.47619,0 0.71428,0 0,-0.2380952 -0.10648,-0.5013268 0,-0.7142857 0.15059,-0.3011693 0.5637,-0.4131164 0.71429,-0.7142857 0.10648,-0.2129589 -0.16836,-0.545927 0,-0.7142857 0.16836,-0.1683588 0.71428,-0.2380953 0.71428,0 0,0.2380952 -0.47619,0 -0.71428,0 -0.2381,0 -0.47619,0 -0.71429,0"
       id="path2993"
       inkscape:connector-curvature="0" />
  </g>
</svg>
