<?xml version="1.0" encoding="UTF-8" standalone="no"?>
<!-- Created with Inkscape (http://www.inkscape.org/) -->

<svg
   xmlns:dc="http://purl.org/dc/elements/1.1/"
   xmlns:cc="http://creativecommons.org/ns#"
   xmlns:rdf="http://www.w3.org/1999/02/22-rdf-syntax-ns#"
   xmlns:svg="http://www.w3.org/2000/svg"
   xmlns="http://www.w3.org/2000/svg"
   xmlns:sodipodi="http://sodipodi.sourceforge.net/DTD/sodipodi-0.dtd"
   xmlns:inkscape="http://www.inkscape.org/namespaces/inkscape"
   width="744.09448819"
   height="1052.3622047"
   id="svg2"
   version="1.1"
   inkscape:version="0.48.5 r10040"
   sodipodi:docname="inplace.svg"
   inkscape:export-filename="/Users/jse26711/opaque/doc/defense/spatial_curves.png"
   inkscape:export-xdpi="90"
   inkscape:export-ydpi="90">
  <defs
     id="defs4" />
  <sodipodi:namedview
     id="base"
     pagecolor="#ffffff"
     bordercolor="#666666"
     borderopacity="1.0"
     inkscape:pageopacity="0.0"
     inkscape:pageshadow="2"
     inkscape:zoom="5.2500692"
     inkscape:cx="85.986475"
     inkscape:cy="987.70551"
     inkscape:document-units="px"
     inkscape:current-layer="layer1"
     showgrid="false"
     inkscape:window-width="1299"
     inkscape:window-height="766"
     inkscape:window-x="49"
     inkscape:window-y="40"
     inkscape:window-maximized="0" />
  <metadata
     id="metadata7">
    <rdf:RDF>
      <cc:Work
         rdf:about="">
        <dc:format>image/svg+xml</dc:format>
        <dc:type
           rdf:resource="http://purl.org/dc/dcmitype/StillImage" />
      </cc:Work>
    </rdf:RDF>
  </metadata>
  <g
     inkscape:label="Layer 1"
     inkscape:groupmode="layer"
     id="layer1">
    <path
       style="fill:none;stroke:#000000;stroke-width:1.19871581;stroke-linecap:butt;stroke-linejoin:miter;stroke-miterlimit:4;stroke-opacity:1;stroke-dasharray:none"
       d="m 27.292508,29.105989 c -0.152213,0.608861 -0.304433,1.217725 -0.456648,1.826589 -0.152213,0.152213 -0.360377,0.264108 -0.456649,0.456648 -0.243548,0.487098 0.243551,0.426199 0,0.913294 -0.09626,0.192538 -0.360377,0.264109 -0.456646,0.456649 -0.13615,0.272293 0.13615,0.641003 0,0.913294 -0.09628,0.192538 -0.360379,0.264108 -0.456648,0.456649 -0.18266,0.365318 0.18266,1.004624 0,1.369942 -0.09626,0.192538 -0.360377,0.264109 -0.456649,0.456649 -0.14351,0.287013 0.143511,1.539578 0,1.826588 -0.09628,0.192538 -0.360377,0.264109 -0.456645,0.456649 -0.182661,0.365318 0.18266,1.004624 0,1.369943 -0.09628,0.192537 -0.36038,0.264108 -0.456649,0.456648 -0.13615,0.272291 0.215266,0.698029 0,0.913294 -0.107621,0.107645 -0.349016,-0.10762 -0.456648,0 -0.107645,0.107645 0.06806,0.320503 0,0.456649 -0.09626,0.192538 -0.360377,0.264108 -0.456646,0.456648 -0.13615,0.272291 0.215265,0.698029 0,0.913295 -0.107645,0.10762 -0.349016,-0.107621 -0.456649,0 -0.304435,0.304435 0.304436,0.608858 0,0.913294 -0.107644,0.107645 -0.349015,-0.107621 -0.456648,0 -0.215265,0.215265 0.215265,0.698031 0,0.913297 -0.107645,0.10762 -0.349013,-0.107645 -0.456646,0 -0.107645,0.10762 0.06806,0.3205 0,0.456646 -0.09628,0.192537 -0.36038,0.264108 -0.456648,0.456648 -0.182661,0.365318 0.18266,1.004625 0,1.369943 -0.09628,0.192538 -0.360378,0.264108 -0.456649,0.456648 -0.09053,0.181054 0.09336,1.276587 0,1.369943 -0.107644,0.107645 -0.349013,-0.107621 -0.456646,0 -0.107644,0.107645 0,0.304431 0,0.456646 0,0.323675 0.05903,2.621819 0,2.739888 -0.09628,0.192538 -0.360379,0.264106 -0.456648,0.456646 -0.06948,0.138979 0,1.164289 0,1.369943 0,1.065512 0,2.131021 0,3.196534 0,0.238784 -0.06003,1.706518 0,1.826591 0.09628,0.192537 0.360377,0.264108 0.456648,0.456646 0.06806,0.13615 -0.06806,0.320503 0,0.456648 0.192538,0.38508 0.720754,0.528217 0.913295,0.913295 0.06806,0.13615 -0.06806,0.320503 0,0.456648 0.09626,0.192538 0.360377,0.264108 0.456648,0.456648 0.06806,0.13615 -0.06806,0.320501 0,0.456646 0.09628,0.192538 0.360377,0.264109 0.456646,0.456649 0.06806,0.13615 -0.06806,0.320503 0,0.456648 0.192538,0.385078 0.720757,0.528217 0.913297,0.913294 0.06806,0.136151 -0.107645,0.349016 0,0.456649 0.107644,0.107621 0.349013,-0.107645 0.456646,0 0.107644,0.107621 -0.107645,0.349013 0,0.456648 0.107644,0.107645 0.349015,-0.107644 0.456648,0 0.107645,0.107645 -0.06806,0.320501 0,0.456646 0.09628,0.192538 0.360377,0.264108 0.456649,0.456649 0.06806,0.13615 -0.107645,0.349015 0,0.456648 0.107644,0.107645 0.349013,-0.107621 0.456645,0 0.107645,0.107645 -0.107644,0.349013 0,0.456646 0.107645,0.107621 0.349016,-0.107645 0.456649,0 0.107645,0.107621 -0.107645,0.349016 0,0.456648 0.107645,0.107645 0.320503,-0.06806 0.456648,0 0.192538,0.09628 0.264109,0.360377 0.456646,0.456649 0.13615,0.06806 0.349016,-0.107621 0.456649,0 0.107644,0.107644 -0.107645,0.349013 0,0.456646 0.107644,0.10762 0.349015,-0.107645 0.456648,0 0.107645,0.10762 -0.107621,0.349015 0,0.456648 0.107645,0.107645 0.349013,-0.107621 0.456648,0 0.107645,0.107645 -0.107644,0.349016 0,0.456648 0.107645,0.107645 0.349014,-0.10762 0.456646,0 0.107645,0.107645 -0.107644,0.349014 0,0.456646 0.107645,0.107645 0.349016,-0.10762 0.456649,0 0.107644,0.107645 -0.107645,0.349016 0,0.456649 0.107644,0.107645 0.349013,-0.107621 0.456648,0 0.107645,0.107645 -0.107644,0.349016 0,0.456648 0.107645,0.107621 0.349013,-0.10762 0.456646,0 0.107645,0.107621 -0.107621,0.349014 0,0.456646 0.107645,0.107645 0.320503,-0.06806 0.456649,0 0.192537,0.09628 0.30443,0.304433 0.456648,0.456649 0.152213,0.152213 0.360377,0.264108 0.456646,0.456648 0,1.217727 -0.152213,-0.152213 0.456648,0.456646 0.107645,0.107645 -0.107644,0.349016 0,0.456648 0.107645,0.107621 0.349016,-0.10762 0.456649,0 0.107644,0.107621 -0.107645,0.349016 0,0.456649 0.215265,0.215265 0.698029,-0.215266 0.913294,0 0.107645,0.10762 -0.107621,0.349013 0,0.456646 0.107645,0.107644 0.349016,-0.107621 0.456648,0 0.107645,0.107644 -0.107644,0.349015 0,0.456648 0.215266,0.215266 0.698029,-0.215265 0.913295,0 0.107645,0.107621 -0.107645,0.349016 0,0.456649 0.107645,0.10762 0.349016,-0.107645 0.456648,0 0.107645,0.10762 -0.107644,0.349013 0,0.456648 0.215266,0.215265 0.698029,-0.215265 0.913295,0 0.107644,0.107645 -0.107645,0.349013 0,0.456646 0.107644,0.107621 0.304433,0 0.456648,0 0,0.152213 -0.107621,0.349016 0,0.456648 0.107645,0.107645 0.349013,-0.10762 0.456646,0 0.215265,0.215266 -0.215265,0.698029 0,0.913295 0.107645,0.10762 0.349016,-0.107645 0.456648,0 0.944821,0.94482 -1.44381,-0.03695 0.456649,0.913296 0.13615,0.06806 0.349013,-0.107644 0.456646,0 0.107644,0.107645 -0.107645,0.349014 0,0.456646 0.306056,0.306057 0.60724,-0.306053 0.913297,0 0.107644,0.107621 -0.107645,0.349016 0,0.456649 0.228331,0.228331 1.141618,-0.228332 1.369942,0 0.107645,0.107645 -0.107644,0.349016 0,0.456648 0.107645,0.107621 0.349014,-0.10762 0.456649,0 0.107644,0.107621 -0.107645,0.349014 0,0.456646 0.107644,0.107645 0.349013,-0.10762 0.456646,0 0.107644,0.107645 -0.107645,0.349016 0,0.456649 0.107644,0.107644 0.349015,0.107644 0.456648,0 0.107621,-0.107621 0,-0.304431 0,-0.456649"
       id="path3007"
       inkscape:connector-curvature="0" />
    <path
       style="fill:none;stroke:#000000;stroke-width:1.19871581;stroke-linecap:butt;stroke-linejoin:miter;stroke-miterlimit:4;stroke-opacity:1;stroke-dasharray:none"
       d="m 73.413916,32.759169 c -0.608861,0.30443 -1.282005,0.504858 -1.826589,0.913294 -0.243545,0.182661 0.215266,0.698032 0,0.913297 -0.107644,0.107645 -0.349015,-0.107621 -0.456648,0 -0.215265,0.215265 0.13615,0.641004 0,0.913294 -0.09626,0.192538 -0.360377,0.264109 -0.456648,0.456649 -0.136151,0.27229 0.215265,0.698029 0,0.913294 -0.107621,0.107645 -0.349014,-0.107621 -0.456646,0 -0.215266,0.215265 0.13615,0.641004 0,0.913294 -0.09628,0.192538 -0.36038,0.264109 -0.456649,0.456649 -0.13615,0.272293 0.13615,0.641004 0,0.913297 -0.09626,0.192537 -0.360377,0.264106 -0.456648,0.456646 -0.13615,0.272293 0.13615,0.641003 0,0.913296 -0.09626,0.192538 -0.360377,0.264106 -0.456646,0.456646 -0.09053,0.181054 0.09336,1.27659 0,1.369943 -0.107645,0.107645 -0.349016,-0.107621 -0.456649,0 -0.1414,0.141401 0.141401,2.141839 0,2.28324 -0.10762,0.10762 -0.349015,-0.107645 -0.456648,0 -0.228331,0.228331 0.228331,1.141618 0,1.369942 -0.107621,0.107645 -0.349013,-0.10762 -0.456646,0 -0.215265,0.215266 0.215265,0.698029 0,0.913295 -0.107645,0.107621 -0.349016,-0.107645 -0.456648,0 -0.09336,0.09336 0.09053,1.188886 0,1.369943 -0.09626,0.192537 -0.360377,0.264108 -0.456649,0.456648 -0.06806,0.13615 0,0.304431 0,0.456646 0,0.152213 0,0.304433 0,0.456648 0,0.913297 0,1.826592 0,2.739886 0,0.152213 0,0.304433 0,0.456648 0,0.152213 -0.10762,0.349016 0,0.456649 0.107645,0.10762 0.349016,-0.107645 0.456649,0 0.215265,0.215265 -0.136151,0.641001 0,0.913294 0.09626,0.192538 0.360377,0.264108 0.456648,0.456648 0.06806,0.136151 -0.06809,0.320501 0,0.456646 0.09626,0.192538 0.360377,0.264109 0.456646,0.456649 0.06806,0.13615 -0.06806,0.3205 0,0.456648 0.192538,0.385078 0.720757,0.528217 0.913297,0.913295 0.06806,0.13615 -0.107645,0.349015 0,0.456648 0.10762,0.107645 0.3205,-0.06806 0.456646,0 0.192538,0.09626 0.304433,0.304431 0.456648,0.456646 0.268575,0.268575 1.615126,1.72086 1.826591,1.826591 1.217728,0 -0.152213,-0.152213 0.456646,0.456649 0.107621,0.107644 0.349016,-0.107621 0.456649,0 0.10762,0.107644 -0.107645,0.349013 0,0.456646 0.10762,0.107644 0.349015,-0.107621 0.456648,0 0.107645,0.107644 -0.06806,0.320503 0,0.456648 0.09628,0.192538 0.360377,0.264108 0.456646,0.456648 0.06806,0.13615 -0.107645,0.349014 0,0.456646 0.107645,0.107645 0.349016,-0.10762 0.456648,0 0.107621,0.107645 -0.107644,0.349016 0,0.456649 0.107621,0.107644 0.349016,-0.107621 0.456649,0 0.107645,0.107644 -0.107621,0.349015 0,0.456648 0.107645,0.107621 0.349013,-0.107645 0.456646,0 0.107645,0.107621 -0.107645,0.349013 0,0.456648 0.94482,0.944819 -0.03695,-1.443812 0.913297,0.456646 0,1.217728 -0.152213,-0.152213 0.456646,0.456649 0.107644,0.107621 -0.107645,0.349013 0,0.456648 0.107644,0.107645 0.349015,-0.107644 0.456648,0 0.107645,0.107645 -0.107621,0.349013 0,0.456646 0.107645,0.107621 0.349016,-0.107644 0.456648,0 0.107621,0.107621 -0.10762,0.349016 0,0.456649 0.107621,0.10762 0.349014,-0.107645 0.456649,0 0.10762,0.10762 -0.06809,0.3205 0,0.456648 0.273988,0.547976 1.095952,0.821964 1.369943,1.369943 0.06806,0.13615 -0.107645,0.349013 0,0.456646 0.10762,0.10762 0.30443,0 0.456646,0 0,0.152213 -0.107621,0.349015 0,0.456648 0.10762,0.107645 0.349015,-0.107621 0.456648,0 0.215265,0.215265 -0.215265,0.698029 0,0.913294 0.107621,0.107645 0.349016,-0.10762 0.456648,0 0.215266,0.215266 -0.215265,0.698032 0,0.913297 0.107621,0.107621 0.349014,-0.10762 0.456646,0 0.107621,0.107621 0,0.304431 0,0.456646 0.152213,0 0.349016,-0.10762 0.456649,0 0.10762,0.107645 -0.107645,0.349016 0,0.456649 0.10762,0.107644 0.349015,-0.107621 0.456648,0 0.107645,0.107644 -0.107621,0.349015 0,0.456648 0.215265,0.215265 0.698029,-0.215265 0.913294,0 0.107621,0.107621 -0.107644,0.349013 0,0.456646 0.107621,0.107645 0.349016,-0.107621 0.456649,0 0.107645,0.107645 -0.107621,0.349016 0,0.456648 0.107645,0.107621 0.349013,-0.10762 0.456646,0 0.107621,0.107621 -0.107645,0.349016 0,0.456649 0.215265,0.215265 0.698031,-0.215266 0.913297,0 0.107644,0.10762 -0.107621,0.349013 0,0.456646 0.107644,0.107644 0.349013,-0.107621 0.456646,0 0.10762,0.107644 -0.107645,0.349015 0,0.456648 0.10762,0.107621 0.349015,-0.107645 0.456648,0 0.107645,0.107621 -0.107621,0.349016 0,0.456649 0.107645,0.10762 0.304433,0 0.456648,0 0,0.152212 -0.06806,0.3205 0,0.456648 0.09626,0.192538 0.360377,0.264106 0.456646,0.456646 0.06809,0.13615 -0.10762,0.349016 0,0.456648 0.107645,0.107645 0.349016,-0.10762 0.456649,0 0.107644,0.107645 -0.107621,0.349014 0,0.456649 0.107644,0.107644 0.349015,-0.107645 0.456648,0 0.107621,0.107644 -0.107645,0.349013 0,0.456646 0.107621,0.10762 0.349013,-0.107645 0.456646,0 0.107645,0.10762 -0.107621,0.349015 0,0.456648 0.107645,0.107645 0.349016,-0.107621 0.456648,0 0.01462,0.01462 0,1.259193 0,1.369943"
       id="path3009"
       inkscape:connector-curvature="0" />
  </g>
</svg>
