<?xml version="1.0" encoding="UTF-8" standalone="no"?>
<!-- Created with Inkscape (http://www.inkscape.org/) -->

<svg
   xmlns:dc="http://purl.org/dc/elements/1.1/"
   xmlns:cc="http://creativecommons.org/ns#"
   xmlns:rdf="http://www.w3.org/1999/02/22-rdf-syntax-ns#"
   xmlns:svg="http://www.w3.org/2000/svg"
   xmlns="http://www.w3.org/2000/svg"
   xmlns:sodipodi="http://sodipodi.sourceforge.net/DTD/sodipodi-0.dtd"
   xmlns:inkscape="http://www.inkscape.org/namespaces/inkscape"
   width="744.09448819"
   height="1052.3622047"
   id="svg3803"
   version="1.1"
   inkscape:version="0.48.5 r10040"
   sodipodi:docname="New document 5">
  <defs
     id="defs3805" />
  <sodipodi:namedview
     id="base"
     pagecolor="#ffffff"
     bordercolor="#666666"
     borderopacity="1.0"
     inkscape:pageopacity="0.0"
     inkscape:pageshadow="2"
     inkscape:zoom="0.98994949"
     inkscape:cx="375"
     inkscape:cy="762.43661"
     inkscape:document-units="px"
     inkscape:current-layer="layer1"
     showgrid="false"
     inkscape:window-width="1218"
     inkscape:window-height="808"
     inkscape:window-x="101"
     inkscape:window-y="16"
     inkscape:window-maximized="0" />
  <metadata
     id="metadata3808">
    <rdf:RDF>
      <cc:Work
         rdf:about="">
        <dc:format>image/svg+xml</dc:format>
        <dc:type
           rdf:resource="http://purl.org/dc/dcmitype/StillImage" />
        <dc:title></dc:title>
      </cc:Work>
    </rdf:RDF>
  </metadata>
  <g
     inkscape:label="Layer 1"
     inkscape:groupmode="layer"
     id="layer1">
    <path
       style="fill:none;stroke:#000000;stroke-width:1.80057538px;stroke-linecap:butt;stroke-linejoin:miter;stroke-opacity:1"
       d="m 33.908393,478.99534 c 2.425142,-0.60629 6.669139,-4.24401 7.275424,-1.81886 0.606286,2.42514 -9.775202,1.81886 -7.275424,1.81886 3.744556,0 7.168579,-1.81886 10.913135,-1.81886 0.606286,0 1.390149,-0.42871 1.818857,0 0.428708,0.42871 -0.428708,1.39015 0,1.81886 0.497679,0.49768 6.288717,-0.49335 7.275422,0 0.766898,0.38345 1.05196,1.4354 1.818857,1.81885 1.084555,0.54229 2.553155,-0.54227 3.637711,0 0.766897,0.38345 1.051958,1.4354 1.818855,1.81885 0.478253,0.23914 6.324308,0 7.275424,0 3.637711,0 7.275424,0 10.913135,0 0.819137,0 4.903027,0.27677 5.456566,0 0.766899,-0.38345 1.05196,-1.4354 1.818858,-1.81885 0.657759,-0.32887 7.829192,0 9.094279,0 0.606284,0 1.390147,0.4287 1.818855,0 0.428708,-0.42871 -0.428708,-1.39015 0,-1.81885 0.428708,-0.42871 1.212571,0 1.818856,0 0.606284,0 1.212567,0 1.818857,0 7.27543,0 14.55084,0 21.82627,0"
       id="path3811"
       inkscape:connector-curvature="0" />
    <path
       style="fill:none;stroke:#000000;stroke-width:1.80057538px;stroke-linecap:butt;stroke-linejoin:miter;stroke-opacity:1"
       d="m 59.372375,475.35763 c 2.425142,0.60628 7.881708,-0.6063 7.275424,1.81885 -0.606287,2.42514 -9.775202,-1.81885 -7.275424,-1.81885 3.091461,0 6.044882,1.31061 9.094279,1.81885 1.196073,0.19935 2.42514,0 3.637711,0 0.857587,0 9.011845,-0.0825 9.094279,0 0.428708,0.42871 -0.428708,1.39015 0,1.81886 0.08243,0.0825 8.236693,0 9.09428,0 6.062852,0 12.125706,0 18.188566,0 0.95111,0 6.79716,0.23912 7.27541,0 0.7669,-0.38344 1.05196,-1.43542 1.81887,-1.81886 0.65775,-0.32889 7.82918,0 9.09427,0 3.03142,0 6.06285,0 9.09428,0 1.21257,0 2.48736,-0.38343 3.63771,0 1.28613,0.42871 2.35159,1.39015 3.63772,1.81886 0.57517,0.19173 1.21256,0 1.81885,0 1.21257,0 2.42514,0 3.63771,0 1.26509,0 8.43652,-0.32889 9.09428,0 0.76689,0.38345 1.05196,1.4354 1.81885,1.81885 1.25636,0.62817 8.45583,-0.63844 9.09428,0 0.42872,0.4287 -0.4287,1.39015 0,1.81885 0.42872,0.42872 1.21258,0 1.81886,0 0.60628,0 1.39015,0.42872 1.81886,0 0.4287,-0.4287 0,-1.21256 0,-1.81885"
       id="path3813"
       inkscape:connector-curvature="0" />
    <path
       style="fill:none;stroke:#000000;stroke-width:1.80057538px;stroke-linecap:butt;stroke-linejoin:miter;stroke-opacity:1"
       d="m 112.11919,475.35763 c 7.86361,1.9659 4.77565,1.81885 9.09428,1.81885 0.60629,0 1.27658,-0.27113 1.81886,0 4.49512,2.24756 -0.62783,1.81886 3.63771,1.81886 0.95111,0 6.79717,-0.23913 7.27542,0 1.5338,0.76688 2.10393,2.87081 3.63772,3.6377 0.54227,0.27116 1.27658,-0.27113 1.81885,0 0.7669,0.38346 1.00544,1.54772 1.81885,1.81885 1.15035,0.38346 2.48738,-0.38343 3.63772,0 0.81341,0.27116 1.00544,1.54772 1.81886,1.81888 2.72828,0.90941 6.36599,-0.90944 9.09427,0 0.81343,0.27113 1.00543,1.54772 1.81886,1.81885 1.42198,0.47398 9.91221,-0.50046 10.91313,0 0.7669,0.38344 1.05197,1.4354 1.81886,1.81885 0.54106,0.27053 10.14802,0 10.91314,0 6.66913,0 13.33828,0 20.00741,0 0.44113,0 5.39807,-0.0586 5.45658,0 0.42869,0.42872 -0.42873,1.39015 0,1.81885 0.0825,0.0825 8.23668,0 9.09427,0 0.60629,0 1.39015,0.42872 1.81885,0 0.42871,-0.4287 -0.4287,-1.39013 0,-1.81885 2.42514,-2.42515 1.81885,3.03143 1.81885,-1.81885"
       id="path3815"
       inkscape:connector-curvature="0" />
    <path
       style="fill:none;stroke:#000000;stroke-width:1.80057538px;stroke-linecap:butt;stroke-linejoin:miter;stroke-opacity:1"
       d="m 139.40203,475.35763 c 0.61761,2.62103 6.17402,-5.09785 9.09428,-3.63771 1.53379,0.76689 2.10391,2.8708 3.63772,3.63771 0.54227,0.27114 1.27657,-0.27114 1.81885,0 0.76689,0.38344 1.05196,1.43542 1.81885,1.81885 0.54227,0.27114 1.27659,-0.27113 1.81886,0 0.76689,0.38344 1.05196,1.43542 1.81885,1.81886 1.14746,0.57372 7.94683,-0.57373 9.09428,0 0.7669,0.38345 1.05197,1.4354 1.81886,1.81885 0.54227,0.27113 1.27658,-0.27114 1.81886,0 0.76691,0.38345 1.05195,1.4354 1.81885,1.81885 0.54229,0.27116 1.24368,-0.19172 1.81885,0 1.28613,0.42872 2.35159,1.39015 3.63773,1.81885 0.57517,0.19173 1.24366,-0.19171 1.81885,0 1.28613,0.42872 2.35158,1.39015 3.63771,1.81888 0.98438,0.32811 6.65578,0 7.27543,0 4.24399,0 8.48798,0 12.73198,0 1.28921,0 10.44286,0.23514 10.91314,0 0.76689,-0.38346 1.21256,-1.21259 1.81885,-1.81888 1.21258,0 2.48736,0.38346 3.63771,0 0.81342,-0.27113 1.00543,-1.54769 1.81886,-1.81885 1.15036,-0.38345 2.42515,0 3.6377,0 0.6063,0 1.27659,0.27116 1.81887,0 0.76689,-0.38345 1.05195,-1.4354 1.81885,-1.81885 0.55353,-0.27677 4.63744,0 5.45657,0 4.24399,0 8.48799,0 12.73198,0 2.42514,0 4.85028,0 7.27542,0 0.60629,0 1.81888,-0.60629 1.81888,0 0,0.60629 -1.21259,0 -1.81888,0"
       id="path3817"
       inkscape:connector-curvature="0" />
    <path
       style="fill:none;stroke:#000000;stroke-width:1.80057538px;stroke-linecap:butt;stroke-linejoin:miter;stroke-opacity:1"
       d="m 172.14144,480.81419 c 7.27543,0 14.55085,0 21.82627,0 0.44112,0 5.39807,-0.0586 5.45657,0 0.4287,0.4287 -0.42871,1.39015 0,1.81885 0.4287,0.42872 1.21256,0 1.81885,0 0.60629,0 1.21257,0 1.81885,0 4.85028,0 9.70057,0 14.55085,0 3.03143,0 6.06286,0 9.09427,0 1.21259,0 2.48738,0.38346 3.63772,0 0.81341,-0.27113 1.05195,-1.4354 1.81886,-1.81885 1.45508,-0.72753 4.00149,0.72755 5.45656,0 0.76691,-0.38345 1.05196,-1.4354 1.81885,-1.81885 0.54229,-0.27114 1.21259,0 1.81886,0 0.60628,0 1.21258,0 1.81887,0 3.6377,0 7.27542,0 10.91312,0 1.21259,0 2.42514,0 3.63773,0 0.60626,0 1.24367,0.19173 1.81885,0 1.28613,-0.42871 2.35158,-1.39015 3.6377,-1.81886 0.39938,-0.13307 7.00503,-0.13523 7.27542,0 0.76691,0.38344 1.05197,1.43542 1.81887,1.81886 0.54228,0.27113 1.27657,-0.27114 1.81885,0 0.7669,0.38345 1.05195,1.4354 1.81886,1.81885 1.45507,0.72755 4.00148,-0.72753 5.45656,0 0.76691,0.38345 1.05196,1.4354 1.81885,1.81885 0.54229,0.27116 1.27659,-0.27113 1.81888,0 0.76687,0.38346 1.05194,1.43542 1.81885,1.81885 0.54227,0.27116 1.21255,0 1.81885,0 1.21258,0 2.48737,-0.38343 3.63772,0 0.8134,0.27116 1.05195,1.43542 1.81885,1.81888 1.25633,0.62816 8.45582,-0.63847 9.09428,0 0.42871,0.42869 0,1.21255 0,1.81885 0,0.60629 0,1.21255 0,1.81885"
       id="path3819"
       inkscape:connector-curvature="0" />
    <path
       style="fill:none;stroke:#000000;stroke-width:1.80057538px;stroke-linecap:butt;stroke-linejoin:miter;stroke-opacity:1"
       d="m 243.07682,478.99534 c 5.1861,1.94727 7.78353,1.81885 12.73197,1.81885 1.70759,0 8.05211,0.34741 9.09429,0 0.81342,-0.27114 1.00545,-1.54772 1.81886,-1.81885 1.15035,-0.38344 2.42514,0 3.6377,0 0.60629,0 1.27659,0.27113 1.81887,0 0.7669,-0.38344 1.05195,-1.43542 1.81885,-1.81886 0.20301,-0.10156 8.89126,-0.10156 9.09427,0 0.76691,0.38344 1.05197,1.43542 1.81888,1.81886 1.08454,0.54229 2.55314,-0.54227 3.6377,0 0.7669,0.38345 1.05197,1.4354 1.81885,1.81885 1.08455,0.54229 2.55316,-0.54227 3.63772,0 0.7669,0.38345 1.05195,1.4354 1.81885,1.81885 1.08456,0.54229 2.55316,-0.54227 3.63772,0 0.76688,0.38346 1.05195,1.43542 1.81886,1.81885 1.14317,0.57162 6.13221,-0.57158 7.27541,0 0.7669,0.38346 1.05196,1.43542 1.81886,1.81888 0.47825,0.23911 6.3243,0 7.27541,0 4.24401,0 8.48801,0 12.732,0 0.6063,0 1.39016,0.42869 1.81885,0 0.42872,-0.42873 0,-1.21259 0,-1.81888"
       id="path3821"
       inkscape:connector-curvature="0" />
    <path
       style="fill:none;stroke:#000000;stroke-width:1.80057538px;stroke-linecap:butt;stroke-linejoin:miter;stroke-opacity:1"
       d="m 270.35964,478.99534 c 4.56371,1.98872 8.17134,1.81885 12.73199,1.81885 0.60629,0 1.27659,-0.27114 1.81888,0 0.76687,0.38345 1.05194,1.4354 1.81885,1.81885 0.47825,0.23914 6.3243,0 7.27542,0 1.01625,0 8.02092,-0.35777 9.09428,0 1.28613,0.42872 2.35158,1.39015 3.63771,1.81885 1.00278,0.33428 6.88656,-0.38884 7.27543,0 0.42869,0.42872 -0.42872,1.39015 0,1.81888 0.63844,0.63844 7.83792,-0.62819 9.09427,0 0.7669,0.38344 1.05195,1.4354 1.81885,1.81885 0.47825,0.23913 6.3243,0 7.27542,0 0.6063,0 1.39016,0.42871 1.81885,0 0.42873,-0.42872 -0.42869,-1.39016 0,-1.81885 0.42873,-0.42873 1.2437,0.19172 1.81888,0 1.28611,-0.42873 2.35158,-1.39016 3.6377,-1.81888 0.57517,-0.19171 1.27657,0.27116 1.81885,0 1.5338,-0.76688 2.21089,-2.68647 3.63772,-3.6377 1.12801,-0.752 2.5097,-1.06686 3.6377,-1.81885 1.56951,-1.04633 4.03591,-4.03587 5.45658,-5.45657 0.60628,-0.60628 1.21257,-1.21258 1.81885,-1.81885 0.60629,-0.60629 1.43542,-1.05196 1.81886,-1.81887 0.27113,-0.54227 -0.42871,-1.39013 0,-1.81885 0.4287,-0.4287 1.39014,0.42872 1.81885,0 0.4287,-0.4287 -0.27114,-1.27657 0,-1.81886 0.38346,-0.76689 1.21257,-1.21257 1.81885,-1.81885 0.60629,-0.60628 1.05197,-1.43542 1.81886,-1.81886 0.54228,-0.27113 1.27658,0.27114 1.81887,0 1.6121,-0.80605 3.80083,-4.35275 5.45655,-5.45655 2.25601,-1.50402 5.01942,-2.13372 7.27544,-3.63773 1.42682,-0.9512 2.1039,-2.87082 3.63771,-3.6377 0.54227,-0.27115 1.27656,0.27113 1.81885,0 0.7669,-0.38345 1.05197,-1.43541 1.81886,-1.81887 0.54227,-0.27113 1.39014,0.42872 1.81885,0 0.42871,-0.4287 -0.42871,-1.39013 0,-1.81885 0.42871,-0.4287 1.39015,0.42872 1.81886,0 0.42871,-0.4287 -0.27114,-1.27658 0,-1.81885 6.03237,-6.0324 -0.85742,1.71483 1.81885,-3.63773 0.7669,-1.53378 2.87082,-2.10391 3.63772,-3.6377 0.27113,-0.54227 -0.27115,-1.27656 0,-1.81885 0.4857,-0.97143 4.499,-4.499 5.45657,-5.45657"
       id="path3823"
       inkscape:connector-curvature="0" />
    <path
       style="fill:none;stroke:#000000;stroke-width:1.80057538px;stroke-linecap:butt;stroke-linejoin:miter;stroke-opacity:1"
       d="m 299.46135,478.99534 c 2.42514,1.21256 8.48799,1.21256 7.27542,3.6377 -1.21257,2.42514 -9.98682,-3.6377 -7.27542,-3.6377 3.26493,0 5.99687,2.60524 9.09427,3.6377 0.6727,0.22425 10.44266,0.23525 10.91313,0 0.7669,-0.38345 1.05197,-1.4354 1.81887,-1.81885 0.54227,-0.27114 1.27658,0.27113 1.81885,0 0.7669,-0.38345 1.05195,-1.4354 1.81885,-1.81885 0.54228,-0.27114 1.39015,0.4287 1.81885,0 0.42872,-0.42871 -0.4287,-1.39015 0,-1.81886 0.42872,-0.42871 1.21258,0 1.81887,0 1.26508,0 8.43651,0.32889 9.09428,0 0.76689,-0.38343 1.05194,-1.43541 1.81885,-1.81885 0.54227,-0.27114 1.39015,0.42871 1.81885,0 0.42871,-0.42871 -0.4287,-1.39016 0,-1.81886 0.42871,-0.42872 1.27659,0.27114 1.81886,0 0.76689,-0.38345 1.05196,-1.43539 1.81886,-1.81885 0.54228,-0.27115 1.27657,0.27113 1.81885,0 0.84228,-0.42113 6.20568,-6.20568 7.27543,-7.27543 0.95756,-0.95756 4.97087,-4.48514 5.45656,-5.45656 0.27113,-0.54229 -0.42871,-1.39015 0,-1.81885 0.4287,-0.42872 1.39016,0.4287 1.81885,0 0.42873,-0.42872 -0.27113,-1.27659 0,-1.81888 0.38346,-0.76688 1.43542,-1.05194 1.81886,-1.81885 0.27115,-0.54227 -0.4287,-1.39015 0,-1.81885 0.42872,-0.42872 1.39014,0.4287 1.81887,0 0.42869,-0.42872 -0.42873,-1.39015 0,-1.81885 0.42869,-0.42872 1.39013,0.4287 1.81885,0 0.42871,-0.42872 -0.42872,-1.39015 0,-1.81887 0.42871,-0.4287 1.39015,0.42872 1.81885,0 0.42872,-0.4287 -0.27113,-1.27657 0,-1.81885 0.24147,-0.48293 4.97364,-5.2151 5.45657,-5.45658 0.54228,-0.27113 1.27658,0.27116 1.81885,0 1.78981,-0.8949 5.48562,-6.38051 7.27543,-7.27541 0.54227,-0.27113 1.27659,0.27114 1.81886,0 0.76689,-0.38346 1.05196,-1.4354 1.81885,-1.81885 0.54229,-0.27114 1.27658,0.27114 1.81886,0 0.7669,-0.38346 1.21258,-1.21257 1.81885,-1.81886 0.60628,-0.60628 1.21258,-1.21257 1.81887,-1.81885 6.03238,-6.0324 -1.71485,0.85742 3.6377,-1.81887 1.53381,-0.76688 2.10392,-2.8708 3.63772,-3.63771 0.54226,-0.27114 1.27658,0.27114 1.81885,0 0.76691,-0.38344 1.05196,-1.4354 1.81885,-1.81884 0.54229,-0.27115 1.39015,0.4287 1.81885,0 0.42872,-0.42872 -0.4287,-1.39016 0,-1.81887 0.42872,-0.4287 1.39015,0.42871 1.81888,0 0.42869,-0.4287 -0.42873,-1.39014 0,-1.81885 0.42869,-0.4287 1.39012,0.42871 1.81885,0 0.42869,-0.4287 -0.27115,-1.27658 0,-1.81885 0.38344,-0.7669 1.21255,-1.21258 1.81885,-1.81885 0.60629,-0.60629 1.05197,-1.43542 1.81885,-1.81888 0.54228,-0.27112 1.39015,0.42873 1.81886,0 0.42871,-0.42869 -0.42871,-1.39013 0,-1.81884 0.42871,-0.4287 1.39014,0.42871 1.81886,0 0.4287,-0.4287 -0.27115,-1.27658 0,-1.81885 2.24756,-4.49514 1.81885,0.62781 1.81885,-3.63773"
       id="path3825"
       inkscape:connector-curvature="0" />
    <path
       style="fill:none;stroke:#000000;stroke-width:1.80057538px;stroke-linecap:butt;stroke-linejoin:miter;stroke-opacity:1"
       d="m 303.09906,500.82162 c 2.42514,-0.6063 6.66913,-4.24402 7.27542,-1.81886 0.60628,2.42514 -9.7752,1.81886 -7.27542,1.81886 3.03142,-0.6063 6.06285,-1.21259 9.09427,-1.81886 0,-0.6063 -0.4287,-1.39016 0,-1.81887 0.42871,-0.4287 1.27659,0.27115 1.81887,0 0.76688,-0.38345 1.05195,-1.4354 1.81885,-1.81885 0.54228,-0.27113 1.39015,0.42871 1.81884,0 0.42873,-0.42872 -0.42869,-1.39015 0,-1.81885 0.42873,-0.42872 1.39016,0.4287 1.81886,0 0.42872,-0.42872 -0.4287,-1.39015 0,-1.81887 0.42872,-0.4287 1.27659,0.27115 1.81887,0 0.76688,-0.38344 1.05195,-1.43541 1.81885,-1.81885 0.54228,-0.27113 1.39015,0.42872 1.81885,0 0.42872,-0.4287 -0.27113,-1.27658 0,-1.81885 3.78483,-7.56965 -0.1255,1.94442 3.63772,-1.81885 0.4287,-0.42873 -0.42872,-1.39016 0,-1.81888 0.4287,-0.4287 1.27657,0.27116 1.81885,0 2.18263,-1.0913 3.27393,-4.36523 5.45658,-5.45655 0.54227,-0.27114 1.39013,0.4287 1.81885,0 0.4287,-0.42871 -0.27116,-1.27659 0,-1.81886 0.76689,-1.5338 2.87082,-2.10393 3.6377,-3.63771 0.27114,-0.54228 -0.4287,-1.39016 0,-1.81885 0.42871,-0.42872 1.39015,0.42869 1.81886,0 0.42871,-0.42872 -0.42871,-1.39015 0,-1.81887 0.42871,-0.42869 1.39014,0.42872 1.81886,0 0.4287,-0.42869 -0.27115,-1.27657 0,-1.81885 0.38345,-0.7669 1.4354,-1.05195 1.81885,-1.81886 0.27115,-0.54227 -0.27113,-1.27656 0,-1.81885 0.38345,-0.76689 1.43542,-1.05196 1.81885,-1.81886 0.27115,-0.54229 -0.42869,-1.39014 0,-1.81885 0.42872,-0.4287 1.39016,0.42871 1.81887,0 0.85742,-0.85742 -0.85741,-2.78029 0,-3.6377 0.4287,-0.42872 1.39014,0.4287 1.81885,0 0.42871,-0.42872 -0.42871,-1.39015 0,-1.81888 0.42871,-0.42869 1.27657,0.27116 1.81886,0 0.48293,-0.24145 5.21511,-4.97363 5.45656,-5.45655 0.27113,-0.54228 -0.42871,-1.39015 0,-1.81887 0.4287,-0.4287 1.39016,0.42872 1.81885,0 0.42873,-0.4287 -0.42869,-1.39013 0,-1.81885 0.42873,-0.4287 1.39016,0.42872 1.81886,0 0.42872,-0.4287 -0.4287,-1.39015 0,-1.81885 0.42872,-0.42871 1.39014,0.4287 1.81887,0 0.85741,-0.85742 -0.85742,-2.78031 0,-3.63773 0.42869,-0.42869 1.39013,0.42873 1.81885,0 0.42871,-0.42869 -0.27113,-1.27656 0,-1.81885 0.38344,-0.76689 1.4354,-1.05194 1.81885,-1.81885 0.27115,-0.54227 -0.4287,-1.39015 0,-1.81885 0.42872,-0.42871 1.39015,0.4287 1.81885,0 0.42872,-0.42871 -0.4287,-1.39015 0,-1.81886 0.42872,-0.42871 1.39015,0.42871 1.81887,0 0.4287,-0.42871 -0.27115,-1.27658 0,-1.81885 0.7669,-1.53379 2.8708,-2.10393 3.6377,-3.63771 0.27115,-0.54227 -0.4287,-1.39015 0,-1.81887 0.42872,-0.42869 1.39015,0.42872 1.81887,0 0.4287,-0.42869 -0.42872,-1.39013 0,-1.81885 0.4287,-0.42869 1.39013,0.42872 1.81886,0 0.85741,-0.85742 -0.85742,-2.78028 0,-3.6377 0.42869,-0.42872 1.39012,0.4287 1.81885,0 0.85741,-0.85741 -0.85742,-2.78031 0,-3.63772 0.42871,-0.4287 1.39015,0.42871 1.81885,0 0.42871,-0.4287 -0.27113,-1.27658 0,-1.81885 0.38344,-0.7669 1.43542,-1.05197 1.81886,-1.81885 1.14397,-2.28796 -2.61223,-3.63772 1.81885,-3.63772"
       id="path3827"
       inkscape:connector-curvature="0" />
    <path
       style="fill:none;stroke:#000000;stroke-width:1.80057538px;stroke-linecap:butt;stroke-linejoin:miter;stroke-opacity:1"
       d="m 359.48358,448.07478 c 2.42514,-1.81885 5.45658,-7.88169 7.27543,-5.45655 1.81885,2.42514 -9.41897,7.6001 -7.27543,5.45655 2.74508,-2.74507 6.11195,-4.79014 9.09428,-7.27543 0.65869,-0.54889 1.05197,-1.43539 1.81885,-1.81885 0.54228,-0.27113 1.39015,0.42873 1.81887,0 0.4287,-0.42869 -0.42872,-1.39015 0,-1.81885 0.4287,-0.42871 1.39014,0.4287 1.81885,0 0.42872,-0.42871 -0.42871,-1.39015 0,-1.81885 0.42872,-0.42871 1.27658,0.27113 1.81885,0 1.78981,-0.8949 5.48562,-6.38052 7.27543,-7.27542 2.50885,-1.25442 1.62692,2.20273 3.63771,-1.81887 0.27114,-0.54228 -0.42871,-1.39013 0,-1.81885 4.85029,0 -0.60628,0.6063 1.81886,-1.81886 0.42871,-0.42871 1.39014,0.42871 1.81885,0 0.42871,-0.42871 -0.27113,-1.27658 0,-1.81884 0.38345,-0.7669 1.43542,-1.05197 1.81887,-1.81887 0.27113,-0.54228 -0.42872,-1.39014 0,-1.81885 0.42869,-0.4287 1.27657,0.27115 1.81885,0 1.7898,-0.8949 5.48561,-6.38052 7.27542,-7.27542 0.54229,-0.27113 1.27658,0.27112 1.81885,0 2.18262,-1.09131 3.27395,-4.36526 5.45658,-5.45658 0.54227,-0.27113 1.21255,0 1.81885,0 0.60629,-0.60627 1.05197,-1.43539 1.81885,-1.81885 0.54228,-0.27113 1.39015,0.42872 1.81886,0 0.42871,-0.42871 -0.27114,-1.27656 0,-1.81885 0.38344,-0.7669 1.4354,-1.05197 1.81886,-1.81885 0.27113,-0.54228 -0.42872,-1.39015 0,-1.81886 3.76327,-3.76329 -0.14711,5.75078 3.6377,-1.81886 0.27115,-0.54228 -0.27113,-1.27657 0,-1.81885 0.38345,-0.7669 1.43542,-1.05197 1.81887,-1.81887 0.27112,-0.54226 -0.42872,-1.39014 0,-1.81885 0.4287,-0.42871 1.27657,0.27115 1.81886,0 0.34815,-0.17412 7.10134,-6.92725 7.27541,-7.27542 0.27113,-0.54229 -0.42871,-1.39016 0,-1.81885 0.42871,-0.42873 1.39015,0.42869 1.81885,0 0.42872,-0.42873 -0.4287,-1.39016 0,-1.81885 0.42872,-0.42873 1.39015,0.42869 1.81886,0 3.76329,-3.76328 -5.75079,0.1471 1.81886,-3.63773 0.54228,-0.27113 1.39014,0.42871 1.81885,0 0.4287,-0.4287 -0.42871,-1.39015 0,-1.81885 0.4287,-0.42871 1.39016,0.4287 1.81885,0 0.42873,-0.42871 -0.42869,-1.39015 0,-1.81885 0.42873,-0.42872 1.39016,0.4287 1.81885,0 0.42873,-0.42872 0,-1.21258 0,-1.81887 0.6063,0 1.2766,0.27115 1.81888,0 7.56963,-3.78481 -1.94442,0.1255 1.81885,-3.6377 3.76327,-3.76327 -0.14711,5.75078 3.6377,-1.81885 0.27115,-0.54229 -0.4287,-1.39016 0,-1.81887 0.42872,-0.42871 1.39015,0.42871 1.81887,0 0.4287,-0.42871 -0.42872,-1.39013 0,-1.81886 0.4287,-0.42869 1.39013,0.42873 1.81885,0 0.4287,-0.42869 -0.27115,-1.27656 0,-1.81885 0.7669,-1.5338 2.6865,-2.21089 3.6377,-3.63771 1.3337,-2.00053 4.20309,-9.65964 5.45658,-10.91313 7.27542,-7.27542 0.60629,4.24399 5.45656,-5.45657"
       id="path3829"
       inkscape:connector-curvature="0" />
    <path
       style="fill:none;stroke:#000000;stroke-width:1.80057538px;stroke-linecap:butt;stroke-linejoin:miter;stroke-opacity:1"
       d="m 277.63508,460.80678 c 0,2.42514 2.42514,7.27542 0,7.27542 -2.42514,0 -1.71484,-8.99025 0,-7.27542 15.23461,-2.05214 -0.78889,8.30541 1.81885,10.91314 0.4287,0.42869 1.39014,-0.42872 1.81885,0 0.42872,0.42869 -0.42871,1.39013 0,1.81885 0.85742,0.85742 2.78029,-0.85741 3.63773,0 0.42869,0.4287 -0.42873,1.39015 0,1.81886 0.49767,0.49767 6.2887,-0.49337 7.27542,0 0.76688,0.38344 1.05195,1.43542 1.81885,1.81885 0.65775,0.32889 7.82919,0 9.09428,0 6.66913,0 13.33828,0 20.00741,0 0.66794,0 7.20223,0.0731 7.27542,0 0.4287,-0.42871 -0.42871,-1.39014 0,-1.81885 0.4287,-0.42871 1.39016,0.42871 1.81885,0 0.42872,-0.42871 -0.42869,-1.39016 0,-1.81886 0.42872,-0.42872 1.39016,0.4287 1.81885,0 0.42873,-0.42872 -0.42869,-1.39016 0,-1.81885 0.42873,-0.42872 1.39016,0.42869 1.81888,0 0.4287,-0.42872 -0.42872,-1.39015 0,-1.81887 0.85741,-0.85742 2.78028,0.85741 3.6377,0 0.42871,-0.42869 -0.4287,-1.39013 0,-1.81885 4.85028,0 -0.60629,0.60628 1.81885,-1.81886 0.42871,-0.42871 1.39015,0.42871 1.81886,0 0.42871,-0.42871 -0.42871,-1.39014 0,-1.81885 3.76329,-3.76327 -0.14709,5.7508 3.63771,-1.81886 0,-4.85029 -0.60629,0.60629 1.81885,-1.81885 0.42872,-0.4287 -0.42869,-1.39016 0,-1.81885 0.42872,-0.42873 1.27659,0.27113 1.81887,0 0.76689,-0.38346 1.05195,-1.4354 1.81885,-1.81885 0.54228,-0.27116 1.27657,0.27113 1.81886,0 1.5338,-0.76691 2.10391,-2.87082 3.63771,-3.63773 0.54229,-0.27113 1.39014,0.42872 1.81885,0 0.4287,-0.42869 -0.42871,-1.39015 0,-1.81885 0.4287,-0.42872 1.27658,0.27113 1.81885,0 0.76691,-0.38344 1.21259,-1.21258 1.81886,-1.81885 0.60628,-0.60629 1.43542,-1.05197 1.81887,-1.81887 0.27113,-0.54228 -0.42873,-1.39013 0,-1.81885 0.42869,-0.4287 1.27657,0.27114 1.81885,0 1.5338,-0.76691 2.10391,-2.87082 3.6377,-3.6377 0.54228,-0.27116 1.39015,0.4287 1.81887,0 0.4287,-0.42871 -0.42872,-1.39015 0,-1.81888 0.4287,-0.42869 1.27657,0.27116 1.81885,0 0.76691,-0.38344 1.05195,-1.43539 1.81885,-1.81885 1.08456,-0.54227 2.55317,0.54229 3.63773,0 1.53378,-0.76689 2.10391,-2.87082 3.6377,-3.6377 0.54227,-0.27114 1.27659,0.27113 1.81886,0 1.53379,-0.7669 2.1039,-2.87082 3.63771,-3.63771 0.54228,-0.27114 1.39014,0.42871 1.81885,0 0.42871,-0.42871 -0.27113,-1.27658 0,-1.81886 0.17412,-0.34817 6.92726,-7.10134 7.27543,-7.27543 4.85027,0 -0.60628,0.6063 1.81886,-1.81884 0.4287,-0.42872 1.39014,0.4287 1.81885,0 0.4287,-0.42872 -0.42871,-1.39016 0,-1.81887 0.4287,-0.4287 1.39015,0.42871 1.81885,0 0.42872,-0.4287 -0.27113,-1.27658 0,-1.81885 0.38346,-0.7669 1.4354,-1.05196 1.81885,-1.81885 0.27116,-0.54228 -0.4287,-1.39015 0,-1.81885 2.42514,-2.42514 1.81888,3.03141 1.81888,-1.81888"
       id="path3831"
       inkscape:connector-curvature="0" />
    <path
       style="fill:none;stroke:#000000;stroke-width:1.80057538px;stroke-linecap:butt;stroke-linejoin:miter;stroke-opacity:1"
       d="m 412.2304,388.05255 c 2.42514,-1.81886 5.13189,-3.31303 7.27542,-5.45657 0.95863,-0.95862 1.06686,-2.5097 1.81887,-3.6377 0.4756,-0.71343 1.21256,-1.21259 1.81886,-1.81888 1.81884,-1.81885 3.63769,-3.6377 5.45656,-5.45655 1.21257,-1.21258 2.6088,-2.26585 3.6377,-3.63772 0.81343,-1.08456 0.86025,-2.67909 1.81886,-3.6377 0.95862,-0.95863 2.67909,-0.86025 3.63771,-1.81887 0.95863,-0.95861 1.06685,-2.5097 1.81885,-3.63771 0.47561,-0.71342 1.21259,-1.21257 1.81885,-1.81885 2.42515,-2.42514 4.85029,-4.85028 7.27543,-7.27542 1.21258,-1.21258 2.68649,-2.21089 3.63772,-3.63772 0.75201,-1.128 1.06686,-2.5097 1.81885,-3.63771 1.66815,-2.5022 2.80598,-1.87064 5.45658,-3.63771 1.42683,-0.95122 2.42514,-2.42514 3.6377,-3.6377 1.81886,-1.81888 3.63771,-3.63773 5.45657,-5.45658 3.03143,-3.03143 6.06286,-6.06285 9.09429,-9.09427 1.21256,-1.21258 2.68648,-2.21089 3.6377,-3.63773 0.75202,-1.128 0.86025,-2.67908 1.81885,-3.63769 0.95863,-0.95863 2.6791,-0.86024 3.63773,-1.81887 0.9586,-0.95861 1.06684,-2.5097 1.81885,-3.63771 0.4756,-0.71342 1.21257,-1.21257 1.81885,-1.81885 0.60629,-0.60628 1.05197,-1.43542 1.81886,-1.81887 2.50885,-1.25443 1.62692,2.20274 3.63771,-1.81885 0.27115,-0.54228 0.60629,-1.81884 0,-1.81884 -0.85742,0 -1.21257,1.21255 -1.81885,1.81884"
       id="path3833"
       inkscape:connector-curvature="0" />
    <path
       style="fill:none;stroke:#000000;stroke-width:1.80057538px;stroke-linecap:butt;stroke-linejoin:miter;stroke-opacity:1"
       d="m 421.32469,380.77713 c 8.22308,0.25851 5.74596,-7.56482 9.09427,-10.91315 0.95863,-0.95861 2.6791,-0.86023 3.63771,-1.81885 0.95862,-0.95863 0.86024,-2.67909 1.81886,-3.6377 0.95862,-0.95863 2.67909,-0.86025 3.6377,-1.81887 0.95863,-0.95861 0.86025,-2.67908 1.81885,-3.63771 0.95863,-0.95863 2.55317,-1.00543 3.63773,-1.81885 6.36447,-4.77336 1.47298,-1.96397 5.45657,-7.27542 2.82727,-3.7697 7.92051,-7.17237 10.91313,-10.91314 1.36557,-1.70697 2.51303,-3.5821 3.63771,-5.45658 0.6975,-1.16248 0.86023,-2.67907 1.81885,-3.6377 0.95863,-0.95862 2.6791,-0.86024 3.63771,-1.81885 0.95863,-0.95862 1.00544,-2.55316 1.81887,-3.63772 1.54335,-2.0578 4.02975,-3.31632 5.45657,-5.45657 0.75199,-1.128 1.06685,-2.5097 1.81885,-3.63771 1.13474,-1.70211 6.11056,-6.11055 7.27543,-7.27542 1.81885,-1.81885 3.6377,-3.63772 5.45656,-5.45657 1.21257,-1.21256 2.26585,-2.60881 3.63771,-3.63769 1.08456,-0.81343 2.67909,-0.86025 3.63772,-1.81888 0.95861,-0.95861 1.00543,-2.55314 1.81885,-3.6377 1.54335,-2.05781 4.02974,-3.31633 5.45657,-5.45657 0.75199,-1.12801 1.06685,-2.50971 1.81885,-3.63772 0.95122,-1.42681 2.87082,-2.1039 3.63771,-3.63771 0.27115,-0.54227 -0.27114,-1.27656 0,-1.81885 0.7669,-1.5338 2.87081,-2.10392 3.63772,-3.63771 1.25443,-2.50886 -2.20273,-1.62691 1.81885,-3.63771 0.54228,-0.27115 1.39015,0.42869 1.81885,0 0.42872,-0.42872 -0.27113,-1.27658 0,-1.81887 0.38345,-0.76689 1.21258,-1.21256 1.81887,-1.81885 1.81885,-1.81885 3.6377,-3.63771 5.45655,-5.45657 0.60629,-0.60627 1.34325,-1.10543 1.81888,-1.81885 9.70055,-14.55085 -6.66916,6.66913 5.45654,-5.45658 12.12571,-12.1257 -9.09427,4.24402 5.45658,-5.45655 0.71342,-0.47562 1.21257,-1.21258 1.81885,-1.81886 0.60629,-0.60628 1.43542,-1.05196 1.81887,-1.81886 0.27112,-0.54228 -0.6063,-1.81885 0,-1.81885 0.60627,0 0.27112,1.27657 0,1.81885 -0.38345,0.7669 -1.21258,1.21258 -1.81887,1.81886 -0.60628,0.60628 -1.21257,1.21257 -1.81885,1.81886"
       id="path3835"
       inkscape:connector-curvature="0" />
    <path
       style="fill:none;stroke:#000000;stroke-width:1.80057538px;stroke-linecap:butt;stroke-linejoin:miter;stroke-opacity:1"
       d="m 381.30986,413.51654 c 4.2585,-1.06463 7.38898,-1.28829 10.91314,-3.63772 1.56949,-1.04634 4.03587,-4.03588 5.45656,-5.45658 4.85027,-4.85027 9.70055,-9.70056 14.55084,-14.55084 0.60629,-0.60629 1.10544,-1.34325 1.81886,-1.81885 2.65058,-1.76705 3.78844,-1.13552 5.45656,-3.63772 0.75201,-1.12801 1.06686,-2.5097 1.81887,-3.6377 1.10381,-1.65575 4.65051,-3.84445 5.45655,-5.45658 0.27115,-0.54227 -0.42869,-1.39015 0,-1.81885 0.42872,-0.42871 1.39016,0.4287 1.81887,0 0.4287,-0.42871 -0.27115,-1.27657 0,-1.81885 0.24146,-0.48294 4.97365,-5.21511 5.45656,-5.45657 0.54227,-0.27115 1.39015,0.42869 1.81886,0 0.4287,-0.42872 -0.27114,-1.27658 0,-1.81885 3.78481,-7.56966 -0.12549,1.94442 3.6377,-1.81887 0.42873,-0.42871 -0.27112,-1.27657 0,-1.81886 3.78484,-7.56963 -0.12549,1.94443 3.63773,-1.81885 0.4287,-0.42871 -0.27116,-1.27656 0,-1.81885 1.09131,-2.18263 4.36524,-3.27395 5.45655,-5.45657 0.27115,-0.54228 -0.4287,-1.39014 0,-1.81885 0.42872,-0.42871 1.39015,0.42871 1.81887,0 0.4287,-0.42871 -0.42872,-1.39015 0,-1.81887 0.4287,-0.42869 1.39013,0.42872 1.81885,0 0.4287,-0.42869 -0.42872,-1.39013 0,-1.81885 2.42515,-2.42514 1.81885,3.03144 1.81885,-1.81885"
       id="path3837"
       inkscape:connector-curvature="0" />
    <path
       style="fill:none;stroke:#000000;stroke-width:1.80057538px;stroke-linecap:butt;stroke-linejoin:miter;stroke-opacity:1"
       d="m 484.98465,318.93602 c 7.66625,-1.45816 0.43629,-6.32919 1.81885,-9.09427 0.76689,-1.53381 2.87082,-2.10393 3.6377,-3.63771 0.27114,-0.54227 -0.27113,-1.27659 0,-1.81887 0.38344,-0.7669 1.21258,-1.21255 1.81886,-1.81885 0.60628,-0.60629 1.21257,-1.21256 1.81886,-1.81884 6.03237,-6.0324 -0.85742,1.71483 1.81885,-3.63773 0.48571,-0.97141 4.49901,-4.49901 5.45657,-5.45658 1.42067,-1.42067 3.88707,-4.41023 5.45657,-5.45654 1.12801,-0.75201 2.67908,-0.86025 3.6377,-1.81887 0.95863,-0.95861 0.86025,-2.67908 1.81886,-3.63771 0.95862,-0.95863 2.67909,-0.86024 3.63772,-1.81885 0.95862,-0.95863 1.00544,-2.55316 1.81885,-3.63771 1.02891,-1.37187 2.42514,-2.42515 3.63772,-3.63771 1.81885,-1.81887 3.6377,-3.63772 5.45655,-5.45657 0.60629,-0.60629 1.43542,-1.05197 1.81888,-1.81886 0.27112,-0.54227 -0.27116,-1.27658 0,-1.81886 0.38344,-0.76688 1.43539,-1.05195 1.81885,-1.81885 0.27112,-0.54229 -0.42873,-1.39016 0,-1.81885 0.42869,-0.42873 1.39015,0.42869 1.81885,0 0.85742,-0.85742 -0.85743,-2.78031 0,-3.63773 0.42871,-0.4287 1.39015,0.42872 1.81884,0 0.42872,-0.4287 -0.27112,-1.27656 0,-1.81885 0.57929,-1.15856 7.66509,-7.66508 9.0943,-9.09427 0.60627,-0.60629 1.81884,-0.96143 1.81884,-1.81885 0,-0.60629 -1.39015,-0.42872 -1.81884,0 0,2.67627 0.42869,1.39013 -1.81887,3.6377 0,-4.24399 -0.5264,-8.52077 0,-12.73199 0.10638,-0.85079 1.21257,-1.21257 1.81887,-1.81885 0.60627,-0.60629 1.21256,-1.21257 1.81884,-1.81885 1.21257,-1.21259 2.2109,-2.6865 3.63771,-3.63773 1.12801,-0.75199 2.50971,-1.06684 3.63772,-1.81885 0.7134,-0.4756 1.10544,-1.34325 1.81885,-1.81885 1.12801,-0.75201 2.50972,-1.06686 3.63772,-1.81886 0.71341,-0.47561 1.10545,-1.34324 1.81885,-1.81886 1.12801,-0.75199 2.6791,-0.86022 3.6377,-1.81885 0.42873,-0.4287 -0.42869,-1.39015 0,-1.81885 0.42873,-0.42871 1.27659,0.27113 1.81888,0 7.56963,-3.78484 -1.94442,0.1255 1.81885,-3.63773 0.42871,-0.42869 1.21256,0 1.81885,0 0,-0.60626 -0.27113,-1.27656 0,-1.81885 0.48572,-0.97142 4.499,-4.499 5.45657,-5.45656 0.95756,-0.95757 4.48515,-4.97085 5.45657,-5.45656 0.54228,-0.27115 1.39013,0.4287 1.81886,0 0.42871,-0.42871 -0.42873,-1.39015 0,-1.81887 0.42871,-0.42869 1.39014,0.42872 1.81885,0 0.42871,-0.42869 -0.42871,-1.39013 0,-1.81885 0.42871,-0.42872 1.27659,0.27113 1.81886,0 0.76689,-0.38345 1.21256,-1.21258 1.81885,-1.81885 0.6063,-0.60629 1.43541,-1.05197 1.81885,-1.81887 0.27114,-0.54226 -0.42869,-1.39014 0,-1.81885 0.42873,-0.4287 1.27658,0.27114 1.81886,0 0.7669,-0.38345 1.21258,-1.21257 1.81887,-1.81885 0.60626,-0.60629 1.21256,-1.21258 1.81885,-1.81885"
       id="path3839"
       inkscape:connector-curvature="0" />
    <path
       style="fill:none;stroke:#000000;stroke-width:1.80057538px;stroke-linecap:butt;stroke-linejoin:miter;stroke-opacity:1"
       d="m 477.70922,322.57374 c 2.63687,-5.63783 9.13083,-7.93045 12.73198,-12.73199 3.98359,-5.31145 -0.90791,-2.50206 5.45657,-7.27543 5.31146,-3.98359 2.50206,0.9079 7.27543,-5.45657 7.75725,-10.34301 -5.68127,3.86241 5.45656,-7.27542 3.03144,-3.03143 6.06285,-6.06285 9.09428,-9.09428 1.21258,-1.21257 2.60881,-2.26584 3.63772,-3.63771 0.8134,-1.08455 0.86022,-2.67909 1.81885,-3.6377 0.95863,-0.95863 2.55316,-1.00545 3.6377,-1.81886 0.24524,-0.18393 8.70427,-8.31426 9.09429,-9.09429 0,-4.85029 -0.60628,0.60629 1.81886,-1.81885 0.4287,-0.4287 -0.42872,-1.39016 0,-1.81885 0.4287,-0.42873 1.39014,0.42869 1.81885,0 0.42871,-0.42873 -0.42871,-1.39016 0,-1.81885 0.42871,-0.42873 1.39015,0.42869 1.81885,0 0.42871,-0.42873 -0.27113,-1.27659 0,-1.81888 0.38345,-0.76688 1.43542,-1.05194 1.81887,-1.81885 0.27112,-0.54227 -0.42872,-1.39015 0,-1.81885 0.42869,-0.42871 1.39013,0.4287 1.81884,0 0.42871,-0.42871 -0.42871,-1.39015 0,-1.81885 0.42871,-0.42872 1.39016,0.4287 1.81886,0 0.42872,-0.42872 -0.4287,-1.39015 0,-1.81886 2.67626,0 1.39016,0.42871 3.63772,-1.81886"
       id="path3841"
       inkscape:connector-curvature="0" />
    <path
       style="fill:none;stroke:#000000;stroke-width:1.80057538px;stroke-linecap:butt;stroke-linejoin:miter;stroke-opacity:1"
       d="m 457.7018,358.95085 c 3.09276,-5.16823 6.79574,-8.61459 10.91313,-12.73199 0.60628,-0.60629 1.34325,-1.10544 1.81885,-1.81885 0.75201,-1.128 0.86024,-2.67909 1.81887,-3.63772 9.29504,-9.29504 -2.53683,7.62642 7.27542,-5.45655 0.81342,-1.08456 0.86022,-2.6791 1.81885,-3.63773 0.95863,-0.95862 2.55317,-1.00543 3.63773,-1.81885 1.37185,-1.0289 2.42514,-2.42514 3.6377,-3.63772 1.21257,-1.21256 2.42514,-2.42513 3.63771,-3.6377 1.21257,-1.21257 2.75543,-2.16727 3.63771,-3.63772 0.9864,-1.64401 0.83244,-3.81254 1.81885,-5.45655 1.76454,-2.94092 5.13294,-4.59733 7.27543,-7.27543 1.36558,-1.70698 2.27214,-3.74961 3.63771,-5.45656 1.07126,-1.33908 2.6088,-2.26585 3.63771,-3.63773 1.62683,-2.1691 2.13371,-5.01941 3.63772,-7.27542 0.4756,-0.71341 1.34325,-1.10545 1.81885,-1.81885 0.75201,-1.12801 1.06686,-2.50971 1.81885,-3.63772 1.13474,-1.7021 6.11055,-6.11054 7.27542,-7.27542 0.60629,-0.60628 1.34325,-1.10543 1.81888,-1.81885 0.75199,-1.12801 0.86022,-2.6791 1.81885,-3.63771 0.95862,-0.95862 2.67908,-0.86024 3.63769,-1.81887 0.95863,-0.95861 1.06686,-2.50969 1.81887,-3.6377 1.10381,-1.65574 4.65051,-3.84444 5.45656,-5.45657 0.27114,-0.54229 -0.27113,-1.27658 0,-1.81885 6.0324,-6.0324 -0.85742,1.71483 1.81887,-3.63773 0.38345,-0.76688 1.21256,-1.21256 1.81884,-1.81885 0.6063,-0.60629 1.05196,-1.4354 1.81886,-1.81885 0.54228,-0.27114 1.39016,0.4287 1.81885,0 0.42872,-0.42871 -0.27113,-1.27657 0,-1.81885 0.38345,-0.7669 1.21258,-1.21258 1.81887,-1.81886 0.60628,-0.60628 1.21256,-1.21257 1.81885,-1.81886"
       id="path3843"
       inkscape:connector-curvature="0" />
    <path
       style="fill:none;stroke:#000000;stroke-width:1.80057538px;stroke-linecap:butt;stroke-linejoin:miter;stroke-opacity:1"
       d="m 528.63719,242.54409 c 3.38201,-1.56564 4.04529,-6.94088 7.27541,-9.09429 2.65058,-1.76706 3.78843,-1.1355 5.45656,-3.6377 0.75201,-1.12801 0.86024,-2.6791 1.81887,-3.63773 0.95861,-0.95861 2.55315,-1.00543 3.6377,-1.81885 1.37187,-1.02891 2.42515,-2.42514 3.63772,-3.63771 3.6377,-3.63771 7.27542,-7.27541 10.91312,-10.91314 1.21259,-1.21255 2.26585,-2.60881 3.63773,-3.6377 1.08456,-0.81343 2.67909,-0.86024 3.6377,-1.81886 0.95863,-0.95861 0.86025,-2.6791 1.81885,-3.63771 0.95863,-0.95863 2.50972,-1.06686 3.63772,-1.81885 0.77095,-0.51397 5.08029,-4.70403 5.45657,-5.45657 0.27114,-0.54228 -0.42871,-1.39016 0,-1.81887 0.42871,-0.4287 1.27657,0.27114 1.81886,0 7.56963,-3.78481 -1.94443,0.1255 1.81885,-3.6377 0.42871,-0.42872 1.21257,0 1.81886,0 0,-0.60629 -0.42871,-1.39015 0,-1.81885 0.4287,-0.42872 1.39014,0.4287 1.81885,0 0.4287,-0.42872 -0.42871,-1.39015 0,-1.81888 0.4287,-0.42869 1.39016,0.42873 1.81885,0 0.42873,-0.42869 -0.42869,-1.39013 0,-1.81885 0.42873,-0.42869 1.39016,0.42872 1.81886,0 0.42872,-0.42869 -0.4287,-1.39015 0,-1.81884 0.42872,-0.42873 1.39014,0.42869 1.81887,0 0.4287,-0.42873 -0.27115,-1.27658 0,-1.81885 0.38343,-0.76691 1.21256,-1.21259 1.81885,-1.81888 0.60629,-0.60627 1.21256,-1.21256 1.81885,-1.81885"
       id="path3845"
       inkscape:connector-curvature="0" />
    <path
       style="fill:none;stroke:#000000;stroke-width:1.80057538px;stroke-linecap:butt;stroke-linejoin:miter;stroke-opacity:1"
       d="m 503.1732,280.74005 c 2.42514,-0.60628 4.95444,-0.89046 7.27541,-1.81885 0.79609,-0.31845 1.21259,-1.21257 1.81886,-1.81886 1.21257,-1.21257 2.26584,-2.6088 3.63772,-3.6377 1.08455,-0.81342 2.67909,-0.86025 3.6377,-1.81886 0.95862,-0.95862 0.86024,-2.67909 1.81887,-3.63772 0.9586,-0.95863 2.55314,-1.00545 3.6377,-1.81885 2.26415,-1.69812 7.01898,-7.01899 9.09427,-9.09427 1.21259,-1.21259 2.26585,-2.60883 3.63773,-3.63773 1.08456,-0.8134 2.55316,-1.00543 3.6377,-1.81885 1.37188,-1.0289 2.42514,-2.42514 3.63771,-3.63771 2.42515,-2.42514 4.85029,-4.85029 7.27543,-7.27543 1.21257,-1.21257 2.26585,-2.6088 3.63771,-3.63771 1.08456,-0.81342 2.55316,-1.00543 3.63771,-1.81885 1.37187,-1.0289 2.26585,-2.60881 3.6377,-3.63771 2.16912,-1.62685 5.01941,-2.1337 7.27543,-3.63771 0.7564,-0.50427 6.95017,-6.62491 7.27544,-7.27543 0.27113,-0.54227 -0.42871,-1.39014 0,-1.81886 0.4287,-0.4287 1.27657,0.27114 1.81885,0 7.56964,-3.78481 -1.94442,0.1255 1.81886,-3.6377 0.42871,-0.42871 1.27656,0.27113 1.81885,0 7.56965,-3.78484 -1.94442,0.1255 1.81886,-3.63773 0.4287,-0.42869 1.27658,0.27116 1.81885,0 7.56965,-3.7848 -1.94442,0.12551 1.81885,-3.6377 0.42873,-0.42871 1.39016,0.4287 1.81886,0 0.42872,-0.42871 -0.4287,-1.39015 0,-1.81885 0.42872,-0.42872 1.39014,0.4287 1.81887,0 0.4287,-0.42872 -0.27115,-1.27659 0,-1.81886 1.96147,-3.92295 1.67623,0.28524 3.6377,-3.63771 0.27114,-0.54227 -0.4287,-1.39015 0,-1.81885 0.42872,-0.42871 1.21258,0 1.81885,0"
       id="path3847"
       inkscape:connector-curvature="0" />
    <path
       style="fill:none;stroke:#000000;stroke-width:1.80057538px;stroke-linecap:butt;stroke-linejoin:miter;stroke-opacity:1"
       d="m 521.36176,286.19663 c 1.06462,-4.25851 1.28828,-7.38899 3.6377,-10.91314 2.78573,-4.17859 1.03893,0.77993 5.45658,-3.63771 0.95862,-0.95862 1.06684,-2.50971 1.81885,-3.63772 0.95123,-1.42684 2.68649,-2.21087 3.63771,-3.63771 0.752,-1.12799 1.06684,-2.50971 1.81886,-3.63771 1.39912,-2.09868 4.05745,-3.3579 5.45657,-5.45658 1.76705,-2.65057 1.13549,-3.78843 3.6377,-5.45655 1.12801,-0.75201 2.67909,-0.86025 3.63772,-1.81886 0.95861,-0.95862 1.06684,-2.50971 1.81885,-3.63771 0.95123,-1.42683 2.68649,-2.21089 3.63771,-3.63772 0.75201,-1.128 1.06686,-2.5097 1.81886,-3.63771 0.95121,-1.42682 2.6865,-2.21089 3.6377,-3.63771 0.75202,-1.12801 1.06686,-2.50971 1.81885,-3.6377 0.95123,-1.42684 2.87082,-2.10393 3.63773,-3.63773 0.27113,-0.54227 -0.27113,-1.27657 0,-1.81885 0.7669,-1.53378 2.87082,-2.10391 3.6377,-3.63771 0.27115,-0.54227 -0.4287,-1.39014 0,-1.81886 0.42872,-0.4287 1.39015,0.42872 1.81887,0 0.4287,-0.4287 0,-1.21256 0,-1.81885 0.60627,0 1.39013,0.42871 1.81885,0 0.42872,-0.4287 -0.27113,-1.27658 0,-1.81885 0.38345,-0.76691 1.43541,-1.05197 1.81885,-1.81885 0.27115,-0.54228 -0.27113,-1.27659 0,-1.81888 0.38345,-0.76687 1.43542,-1.05194 1.81887,-1.81885 0.27113,-0.54227 -0.42871,-1.39015 0,-1.81885 0.4287,-0.42871 1.39014,0.4287 1.81885,0 0.42871,-0.42871 -0.42871,-1.39015 0,-1.81885 0.42871,-0.42872 1.39013,0.4287 1.81886,0 0.42871,-0.42872 -0.27114,-1.27659 0,-1.81886 0.38345,-0.76691 1.43539,-1.05196 1.81885,-1.81886 0.27114,-0.54228 -0.27113,-1.27657 0,-1.81885 0.76689,-1.5338 2.87082,-2.10392 3.63771,-3.63772 0.27113,-0.54228 -0.42871,-1.39013 0,-1.81885 0.4287,-0.42872 1.39016,0.42872 1.81885,0 0.42873,-0.42872 -0.42869,-1.39015 0,-1.81885 0.42873,-0.42872 1.39016,0.4287 1.81886,0 0.42872,-0.42872 -0.27114,-1.27659 0,-1.81887 3.78483,-7.56963 -0.1255,1.94442 3.63772,-1.81885 0.42869,-0.4287 0,-1.21257 0,-1.81885 0.60629,0 1.27657,0.27113 1.81885,0 0.7669,-0.38346 1.21258,-1.21258 1.81885,-1.81885 0.60629,-0.60629 1.43542,-1.05197 1.81887,-1.81888 0.27113,-0.54225 -0.27115,-1.27656 0,-1.81885 0.98073,-1.96147 2.65696,-1.67622 3.6377,-3.63769 0.27115,-0.54229 -0.27113,-1.2766 0,-1.81888 0.24146,-0.48291 4.97364,-5.2151 5.45658,-5.45655 0.54227,-0.27114 1.39015,0.4287 1.81885,0 0.42871,-0.42871 -0.27113,-1.27659 0,-1.81886 0.76689,-1.5338 2.87082,-2.10393 3.63771,-3.63771 0.27113,-0.54228 -0.42871,-1.39016 0,-1.81885 0.42871,-0.42872 1.39014,0.42869 1.81885,0 0.42871,-0.42872 -0.27114,-1.2766 0,-1.81887 0.38346,-0.76689 1.21257,-1.21257 1.81886,-1.81885 1.42069,-1.42067 4.41023,-3.88708 5.45657,-5.45657 0.75201,-1.12801 0.86023,-2.67909 1.81886,-3.6377 0.42871,-0.42873 1.27656,0.27113 1.81885,0 7.56964,-3.78484 -1.94444,0.12549 1.81886,-3.63773 0.4287,-0.4287 1.39014,0.42871 1.81885,0 0.4287,-0.4287 -0.42871,-1.39014 0,-1.81885 0.4287,-0.4287 1.39015,0.42871 1.81885,0 0.42872,-0.4287 -0.4287,-1.39015 0,-1.81885 0.42872,-0.42872 1.39015,0.4287 1.81885,0 0.42872,-0.42872 -0.4287,-1.39015 0,-1.81885 0.42872,-0.42872 1.39015,0.4287 1.81888,0 2.42514,-2.42514 -3.03144,-1.81887 1.81885,-1.81887"
       id="path3849"
       inkscape:connector-curvature="0" />
    <path
       style="fill:none;stroke:#000000;stroke-width:1.80057538px;stroke-linecap:butt;stroke-linejoin:miter;stroke-opacity:1"
       d="m 563.19542,209.80467 c 2.42514,-2.42514 4.64071,-5.0798 7.27543,-7.27542 1.04148,-0.8679 2.5791,-0.97195 3.63772,-1.81885 4.65805,-3.72643 8.07394,-9.00556 12.73199,-12.73199 1.70697,-1.36558 3.7496,-2.27213 5.45658,-3.63773 2.6781,-2.14248 4.85028,-4.85028 7.27542,-7.27542 2.42514,-2.42514 5.13292,-4.59729 7.27543,-7.27541 1.36557,-1.70697 2.27213,-3.7496 3.6377,-5.45656 1.07125,-1.33908 2.56647,-2.29866 3.63771,-3.63772 1.36558,-1.70696 2.27213,-3.74959 3.63771,-5.45657 1.07125,-1.33906 2.56646,-2.29866 3.63772,-3.6377 3.30077,-2.12656 3.33542,-6.26612 5.45656,-9.09428 1.02889,-1.37188 2.60881,-2.26585 3.63771,-3.63772 0.81341,-1.08456 1.06684,-2.5097 1.81885,-3.6377 0.95123,-1.42684 2.42514,-2.42514 3.63773,-3.63773 1.81885,-1.81885 3.6377,-3.6377 5.45654,-5.45656 0.6063,-0.60628 1.43542,-1.05196 1.81888,-1.81886 0.27113,-0.54228 -0.42872,-1.39016 0,-1.81885 0.4287,-0.42872 1.39013,0.42869 1.81885,0 0.4287,-0.42872 -0.42872,-1.39015 0,-1.81885 0.4287,-0.42871 1.39015,0.4287 1.81885,0 0.42871,-0.42871 -0.27113,-1.27659 0,-1.81887 0.7669,-1.53378 2.87082,-2.10391 3.63773,-3.63771 0.27112,-0.54227 -0.42873,-1.39015 0,-1.81885 0.42869,-0.42871 1.21255,0 1.81885,0"
       id="path3851"
       inkscape:connector-curvature="0" />
    <path
       style="fill:none;stroke:#000000;stroke-width:1.80057538px;stroke-linecap:butt;stroke-linejoin:miter;stroke-opacity:1"
       d="m 263.08422,453.53135 c 2.42514,1.21259 8.48801,1.21259 7.27542,3.63773 -1.21256,2.42513 -9.19265,-5.55496 -7.27542,-3.63773 2.49979,2.49978 6.15279,3.49558 9.09429,5.45658 0.7134,0.47559 1.05195,1.4354 1.81885,1.81885 0.54228,0.27114 1.39015,-0.4287 1.81886,0 3.76327,3.76327 -5.7508,-0.14711 1.81886,3.63771 0.54226,0.27113 1.27658,-0.27114 1.81885,0 0.76691,0.38346 1.05196,1.43541 1.81885,1.81885 1.08456,0.54229 2.78029,-0.85741 3.63773,0 0.42869,0.42871 -0.42873,1.39016 0,1.81886 0.90941,0.90944 4.54713,-0.90941 5.45655,0 0.42872,0.42872 -0.4287,1.39016 0,1.81885 0.42872,0.42872 1.27659,-0.27113 1.81887,0 0.76688,0.38345 1.05195,1.43542 1.81885,1.81887 0.54228,0.27113 1.39015,-0.42872 1.81885,0 0.42871,0.42869 -0.4287,1.39013 0,1.81885 0.43766,0.43767 6.83775,-0.43767 7.27543,0 0.42871,0.4287 -0.4287,1.39015 0,1.81886 0.63844,0.63846 7.83794,-0.62817 9.09427,0 0.76689,0.38344 1.05196,1.43542 1.81887,1.81885 0.203,0.10155 8.89125,0.10155 9.09427,0 0.7669,-0.38343 1.05195,-1.43541 1.81885,-1.81885 0.98672,-0.49337 6.77775,0.49767 7.27542,0 0.42872,-0.42871 -0.42869,-1.39016 0,-1.81886 0.85742,-0.85741 2.55317,0.54228 3.63773,0 1.53378,-0.7669 2.10392,-2.87081 3.6377,-3.63772 1.08456,-0.54227 2.55316,0.54228 3.63771,0 0.76689,-0.38343 1.21257,-1.21257 1.81886,-1.81885 0.60629,-0.60629 1.21256,-1.21257 1.81885,-1.81886 0.6063,-0.60628 1.21258,-1.21257 1.81885,-1.81885 0.60629,-0.60628 1.05197,-1.43542 1.81887,-1.81886 0.54228,-0.27113 1.27657,0.27114 1.81885,0 2.18262,-1.09132 3.27394,-4.36525 5.45657,-5.45655 1.08456,-0.54229 2.55314,0.54227 3.6377,0 0.76691,-0.38346 1.05197,-1.43542 1.81886,-1.81888 1.08456,-0.54227 2.7803,0.85742 3.63772,0 0.42871,-0.42869 -0.42872,-1.39013 0,-1.81885 0.85742,-0.85742 2.78029,0.85742 3.6377,0 0.42872,-0.42869 -0.4287,-1.39015 0,-1.81885 0.42872,-0.42872 1.27659,0.27113 1.81887,0 0.7669,-0.38344 1.05195,-1.4354 1.81885,-1.81885 0.54228,-0.27115 1.27658,0.27113 1.81885,0 0.76691,-0.38345 1.05197,-1.43541 1.81887,-1.81887 0.54227,-0.27113 1.39013,0.42872 1.81886,0 0.42869,-0.4287 -0.42873,-1.39013 0,-1.81885 0.85741,-0.85741 2.55314,0.54228 3.6377,0 0.7669,-0.38345 1.05197,-1.4354 1.81886,-1.81885 1.08454,-0.54229 2.78029,0.85742 3.63771,0 0.42871,-0.42871 -0.42871,-1.39015 0,-1.81885 0.90943,-0.90943 4.54713,0.90942 5.45657,0 0.42869,-0.42871 -0.42872,-1.39015 0,-1.81888 0.85742,-0.85741 2.55315,0.54229 3.63771,0 0.76689,-0.38344 1.05196,-1.43539 1.81886,-1.81885 0.54226,-0.27113 1.27658,0.27116 1.81885,0 0.76691,-0.38344 1.05196,-1.4354 1.81885,-1.81885 0.54229,-0.27114 1.27658,0.27113 1.81885,0 0.7669,-0.38344 1.05197,-1.43541 1.81888,-1.81885 0.54227,-0.27114 1.27656,0.27113 1.81885,0 0.76689,-0.38344 1.05194,-1.43541 1.81885,-1.81886 0.54227,-0.27113 1.39015,0.42871 1.81885,0 0.42872,-0.42871 -0.4287,-1.39014 0,-1.81885 0.85742,-0.85742 2.7803,0.85741 3.63772,0 0.4287,-0.42871 -0.42872,-1.39015 0,-1.81886 0.4287,-0.42871 1.27657,0.27114 1.81885,0 0.76689,-0.38345 1.05196,-1.43542 1.81885,-1.81885 0.54227,-0.27115 1.39015,0.4287 1.81887,0 0.4287,-0.42871 -0.42872,-1.39015 0,-1.81887 0.4287,-0.42869 1.27657,0.27115 1.81886,0 0.76689,-0.38344 1.05194,-1.4354 1.81884,-1.81885 0.54228,-0.27112 1.39016,0.42872 1.81885,0 0.42872,-0.42869 -0.42869,-1.39015 0,-1.81886 0.42872,-0.42871 1.2766,0.27114 1.81887,0 0.76689,-0.38344 1.05196,-1.4354 1.81885,-1.81884 0.54228,-0.27115 1.39015,0.4287 1.81885,0 0.42872,-0.42872 -0.27113,-1.2766 0,-1.81887 0.38346,-0.76688 1.21258,-1.21256 1.81886,-1.81885"
       id="path3853"
       inkscape:connector-curvature="0" />
    <path
       style="fill:none;stroke:#000000;stroke-width:1.80057538px;stroke-linecap:butt;stroke-linejoin:miter;stroke-opacity:1"
       d="m 384.94757,384.41483 c 0,2.42514 2.42514,7.27542 0,7.27542 -2.42514,0 1.71483,-8.99025 0,-7.27542 -19.22453,19.22453 1.57134,4.13271 -1.81886,10.91314 -0.38345,0.7669 -1.43541,1.05195 -1.81885,1.81886 -0.27113,0.54227 0.42871,1.39015 0,1.81886 -0.42873,0.4287 -1.39016,-0.42871 -1.81885,0 -0.85742,0.85741 0.54227,2.55314 0,3.6377 -0.38346,0.7669 -1.43542,1.05196 -1.81886,1.81885 -0.27115,0.54228 0,1.21258 0,1.81888 -0.60628,0.60626 -1.43542,1.05194 -1.81887,1.81885 -0.54227,1.08455 0.85742,2.78028 0,3.63769 -0.4287,0.42873 -1.39013,-0.42869 -1.81885,0 -0.42871,0.42873 0.42872,1.39016 0,1.81888 -0.42871,0.4287 -1.39015,-0.42872 -1.81885,0 -0.85742,0.85741 0.54228,2.55314 0,3.6377 -0.38345,0.76689 -1.43542,1.05197 -1.81887,1.81885 -0.54226,1.08456 0.54228,2.55317 0,3.63771 -0.38343,0.76691 -1.43541,1.05196 -1.81885,1.81886 -0.27113,0.54228 0.27115,1.27657 0,1.81885 -0.38345,0.76691 -1.43541,1.05198 -1.81885,1.81887 -0.36059,0.72116 0.37183,5.08472 0,5.45656 -0.42872,0.42871 -1.39016,-0.42871 -1.81885,0 -0.85742,0.85741 0.54227,2.55316 0,3.63771 -0.38345,0.76691 -1.43542,1.05196 -1.81887,1.81885 -0.54227,1.08456 0.85743,2.78031 0,3.63773 -0.4287,0.4287 -1.39013,-0.42871 -1.81886,0 -0.85741,0.85741 0.85742,2.78029 0,3.6377 -0.42869,0.42872 -1.39015,-0.4287 -1.81885,0 -0.85741,0.85742 0.85742,2.7803 0,3.63772 -0.42871,0.4287 -1.39015,-0.42872 -1.81885,0 -0.85742,0.85741 0.85742,2.78028 0,3.6377 -0.42871,0.42872 -1.39015,-0.42869 -1.81886,0 -0.85742,0.85742 0.54227,2.55317 0,3.63773 -0.38343,0.76688 -1.4354,1.05194 -1.81885,1.81885 -0.54229,1.08456 0.85741,2.78028 0,3.6377 -0.42871,0.42871 -1.39015,-0.4287 -1.81886,0 -0.85741,0.85742 0.85742,2.7803 0,3.63771 -0.42871,0.42871 -1.39015,-0.42871 -1.81885,0 -0.42871,0.42871 0.27113,1.27658 0,1.81886 -0.38345,0.7669 -1.43542,1.05196 -1.81887,1.81885 -0.27113,0.54228 0,1.21258 0,1.81887 -0.60627,0.60627 -1.4354,1.05195 -1.81885,1.81885 -0.27113,0.54228 0.27115,1.27657 0,1.81886 -0.38345,0.76689 -1.4354,1.05196 -1.81885,1.81885 -0.27115,0.54227 0.4287,1.39015 0,1.81886 -0.42872,0.4287 -1.39015,-0.42871 -1.81886,0 -0.42871,0.4287 0.42871,1.39014 0,1.81885 -0.42871,0.4287 -1.39015,-0.42871 -1.81886,0 -1.21301,1.21302 1.21303,2.42469 0,3.6377 -0.4287,0.42872 -1.39014,-0.4287 -1.81885,0 -0.4287,0.42872 0.27114,1.27659 0,1.81888 -1.09132,2.18262 -4.36524,3.27392 -5.45658,5.45655 -0.27113,0.54228 0.42873,1.39015 0,1.81887 -0.42869,0.4287 -1.39013,-0.42872 -1.81885,0 -0.42869,0.4287 0.42872,1.39013 0,1.81885 -0.85742,0.85741 -2.78029,-0.85742 -3.6377,0 -0.42872,0.42871 0.4287,1.39015 0,1.81885 -0.37185,0.37184 -4.7354,-0.36058 -5.45657,0 -4.49514,2.24756 0.62783,1.81887 -3.63772,1.81887 -3.03141,0 -6.06285,0 -9.09427,0 -0.60629,0 -1.39015,-0.42872 -1.81886,0 -0.42871,0.42869 0.42871,1.39013 0,1.81886 -0.42871,0.42869 -1.21257,0 -1.81885,0 -4.24401,0 -8.488,0 -12.73199,0 -0.66796,0 -7.20223,0.0733 -7.27542,0 -0.42872,-0.42873 0.42869,-1.39017 0,-1.81886 -0.42872,-0.42872 -1.21259,0 -1.81885,0 -0.6063,0 -1.21259,0 -1.81888,0 -3.6377,0 -7.27541,0 -10.91312,0 -0.60628,0 -1.81887,0.60627 -1.81887,0 0,-0.6063 1.39015,0.42869 1.81887,0 0.42869,-0.42872 0,-1.21258 0,-1.81887"
       id="path3855"
       inkscape:connector-curvature="0" />
  </g>
</svg>
